<mxfile host="65bd71144e">
    <diagram id="xW6_Q2MIWAx65aIR4-pd" name="PÃ¡gina-1">
        <mxGraphModel dx="894" dy="606" grid="1" gridSize="10" guides="1" tooltips="1" connect="1" arrows="1" fold="1" page="1" pageScale="1" pageWidth="1600" pageHeight="900" background="#ffffff" math="0" shadow="0">
            <root>
                <mxCell id="0"/>
                <mxCell id="1" parent="0"/>
                <mxCell id="19" value="" style="rounded=0;whiteSpace=wrap;html=1;fillColor=#FFFFFF;strokeColor=#424242;" vertex="1" parent="1">
                    <mxGeometry x="909.92" y="930" width="80" height="40" as="geometry"/>
                </mxCell>
                <mxCell id="346" value="" style="rounded=0;whiteSpace=wrap;html=1;fillColor=#FFFFFF;strokeColor=#424242;" vertex="1" parent="1">
                    <mxGeometry x="914.67" y="935" width="70.5" height="30" as="geometry"/>
                </mxCell>
                <mxCell id="9" value="" style="rounded=0;whiteSpace=wrap;html=1;fillColor=#FFFFFF;strokeColor=#424242;" vertex="1" parent="1">
                    <mxGeometry x="303.99999999999994" y="832.88" width="80" height="40" as="geometry"/>
                </mxCell>
                <mxCell id="273" style="edgeStyle=none;html=1;exitX=1;exitY=0.5;exitDx=0;exitDy=0;entryX=0;entryY=0.5;entryDx=0;entryDy=0;strokeColor=#424242;endArrow=none;endFill=0;" edge="1" parent="1" source="2" target="205">
                    <mxGeometry relative="1" as="geometry"/>
                </mxCell>
                <mxCell id="276" style="edgeStyle=none;html=1;exitX=1;exitY=0.5;exitDx=0;exitDy=0;entryX=0;entryY=0.5;entryDx=0;entryDy=0;strokeColor=#424242;endArrow=none;endFill=0;" edge="1" parent="1" source="2" target="197">
                    <mxGeometry relative="1" as="geometry">
                        <Array as="points">
                            <mxPoint x="1196.92" y="620"/>
                            <mxPoint x="1196.92" y="560"/>
                        </Array>
                    </mxGeometry>
                </mxCell>
                <mxCell id="2" value="" style="rounded=0;whiteSpace=wrap;html=1;fillColor=#FFFFFF;strokeColor=#424242;" vertex="1" parent="1">
                    <mxGeometry x="1106.92" y="600" width="80" height="40" as="geometry"/>
                </mxCell>
                <mxCell id="3" value="" style="rounded=0;whiteSpace=wrap;html=1;fillColor=#FFFFFF;strokeColor=#424242;" vertex="1" parent="1">
                    <mxGeometry x="1111.67" y="605" width="70.5" height="30" as="geometry"/>
                </mxCell>
                <mxCell id="6" value="" style="rounded=0;whiteSpace=wrap;html=1;fillColor=#FFFFFF;strokeColor=#424242;" vertex="1" parent="1">
                    <mxGeometry x="865.92" y="410" width="80" height="40" as="geometry"/>
                </mxCell>
                <mxCell id="10" value="Genero" style="text;html=1;strokeColor=none;fillColor=none;align=center;verticalAlign=middle;whiteSpace=wrap;rounded=0;fontFamily=Tahoma;fontColor=#424242;" vertex="1" parent="1">
                    <mxGeometry x="313.99999999999994" y="837.88" width="60" height="30" as="geometry"/>
                </mxCell>
                <mxCell id="328" style="edgeStyle=none;html=1;exitX=1;exitY=0.5;exitDx=0;exitDy=0;entryX=0;entryY=0.5;entryDx=0;entryDy=0;strokeColor=#424242;endArrow=none;endFill=0;" edge="1" parent="1" source="11" target="36">
                    <mxGeometry relative="1" as="geometry"/>
                </mxCell>
                <mxCell id="343" style="edgeStyle=none;html=1;exitX=0.5;exitY=1;exitDx=0;exitDy=0;entryX=0.5;entryY=0;entryDx=0;entryDy=0;strokeColor=#424242;endArrow=none;endFill=0;" edge="1" parent="1" source="11" target="217">
                    <mxGeometry relative="1" as="geometry"/>
                </mxCell>
                <mxCell id="11" value="" style="rounded=0;whiteSpace=wrap;html=1;fillColor=#FFFFFF;strokeColor=#424242;" vertex="1" parent="1">
                    <mxGeometry x="548.92" y="1130" width="80" height="40" as="geometry"/>
                </mxCell>
                <mxCell id="12" value="Aluno" style="text;html=1;strokeColor=none;fillColor=none;align=center;verticalAlign=middle;whiteSpace=wrap;rounded=0;fontFamily=Tahoma;fontColor=#424242;" vertex="1" parent="1">
                    <mxGeometry x="558.92" y="1135" width="60" height="30" as="geometry"/>
                </mxCell>
                <mxCell id="13" style="edgeStyle=none;html=1;entryX=0;entryY=0.5;entryDx=0;entryDy=0;strokeColor=#424242;fontFamily=Tahoma;fontSize=10;fontColor=#424242;endArrow=none;endFill=0;exitX=0.449;exitY=0.003;exitDx=0;exitDy=0;exitPerimeter=0;" edge="1" parent="1" source="15" target="42">
                    <mxGeometry relative="1" as="geometry">
                        <Array as="points">
                            <mxPoint x="664.92" y="700"/>
                            <mxPoint x="665" y="620"/>
                        </Array>
                    </mxGeometry>
                </mxCell>
                <mxCell id="339" style="edgeStyle=none;html=1;exitX=1;exitY=0.5;exitDx=0;exitDy=0;entryX=0;entryY=0.5;entryDx=0;entryDy=0;strokeColor=#424242;endArrow=none;endFill=0;" edge="1" parent="1" source="15" target="336">
                    <mxGeometry relative="1" as="geometry"/>
                </mxCell>
                <mxCell id="354" style="edgeStyle=none;html=1;exitX=0;exitY=0.5;exitDx=0;exitDy=0;strokeColor=#424242;endArrow=none;endFill=0;entryX=0.5;entryY=1;entryDx=0;entryDy=0;" edge="1" parent="1" source="15" target="351">
                    <mxGeometry relative="1" as="geometry">
                        <mxPoint x="480" y="540" as="targetPoint"/>
                        <Array as="points">
                            <mxPoint x="540" y="790"/>
                            <mxPoint x="500" y="790"/>
                            <mxPoint x="500" y="740"/>
                            <mxPoint x="500" y="640"/>
                        </Array>
                    </mxGeometry>
                </mxCell>
                <mxCell id="355" style="edgeStyle=none;html=1;exitX=0;exitY=0.75;exitDx=0;exitDy=0;strokeColor=#424242;endArrow=none;endFill=0;entryX=1;entryY=0.5;entryDx=0;entryDy=0;" edge="1" parent="1" source="15" target="349">
                    <mxGeometry relative="1" as="geometry">
                        <mxPoint x="500" y="830" as="targetPoint"/>
                        <Array as="points">
                            <mxPoint x="580" y="800"/>
                            <mxPoint x="580" y="820"/>
                            <mxPoint x="580" y="850"/>
                        </Array>
                    </mxGeometry>
                </mxCell>
                <mxCell id="15" value="" style="rounded=0;whiteSpace=wrap;html=1;fillColor=#FFFFFF;strokeColor=#424242;" vertex="1" parent="1">
                    <mxGeometry x="628.92" y="770" width="80" height="40" as="geometry"/>
                </mxCell>
                <mxCell id="16" style="edgeStyle=none;html=1;entryX=0.5;entryY=0;entryDx=0;entryDy=0;strokeColor=#424242;fontFamily=Tahoma;fontSize=10;fontColor=#424242;endArrow=none;endFill=0;" edge="1" parent="1" target="29">
                    <mxGeometry relative="1" as="geometry">
                        <mxPoint x="668.92" y="810" as="sourcePoint"/>
                    </mxGeometry>
                </mxCell>
                <mxCell id="17" style="edgeStyle=none;html=1;entryX=0.5;entryY=0;entryDx=0;entryDy=0;strokeColor=#424242;fontFamily=Tahoma;fontSize=10;fontColor=#424242;endArrow=none;endFill=0;" edge="1" parent="1" source="18" target="32">
                    <mxGeometry relative="1" as="geometry">
                        <Array as="points">
                            <mxPoint x="668.92" y="1010"/>
                            <mxPoint x="588.92" y="1010"/>
                        </Array>
                    </mxGeometry>
                </mxCell>
                <mxCell id="18" value="" style="rounded=0;whiteSpace=wrap;html=1;fillColor=#FFFFFF;strokeColor=#424242;" vertex="1" parent="1">
                    <mxGeometry x="628.92" y="930" width="80" height="40" as="geometry"/>
                </mxCell>
                <mxCell id="20" value="Reserva" style="text;html=1;strokeColor=none;fillColor=none;align=center;verticalAlign=middle;whiteSpace=wrap;rounded=0;fontFamily=Tahoma;fontColor=#424242;" vertex="1" parent="1">
                    <mxGeometry x="919.92" y="935" width="60" height="30" as="geometry"/>
                </mxCell>
                <mxCell id="21" value="" style="rounded=0;whiteSpace=wrap;html=1;fillColor=#FFFFFF;strokeColor=#424242;" vertex="1" parent="1">
                    <mxGeometry x="865.92" y="600" width="80" height="40" as="geometry"/>
                </mxCell>
                <mxCell id="22" value="Editora" style="text;html=1;strokeColor=none;fillColor=none;align=center;verticalAlign=middle;whiteSpace=wrap;rounded=0;fontFamily=Tahoma;fontColor=#424242;" vertex="1" parent="1">
                    <mxGeometry x="875.92" y="605" width="60" height="30" as="geometry"/>
                </mxCell>
                <mxCell id="23" style="edgeStyle=none;html=1;exitX=1;exitY=0.5;exitDx=0;exitDy=0;entryX=0;entryY=0.5;entryDx=0;entryDy=0;strokeColor=#424242;fontSize=8;endArrow=none;endFill=0;" edge="1" parent="1" source="24" target="239">
                    <mxGeometry relative="1" as="geometry"/>
                </mxCell>
                <mxCell id="24" value="" style="rounded=0;whiteSpace=wrap;html=1;fillColor=#FFFFFF;strokeColor=#424242;" vertex="1" parent="1">
                    <mxGeometry x="624.92" y="410" width="80" height="40" as="geometry"/>
                </mxCell>
                <mxCell id="28" style="edgeStyle=none;html=1;entryX=0.5;entryY=0;entryDx=0;entryDy=0;strokeColor=#424242;fontFamily=Tahoma;fontSize=10;fontColor=#424242;endArrow=none;endFill=0;" edge="1" parent="1" source="29" target="18">
                    <mxGeometry relative="1" as="geometry"/>
                </mxCell>
                <mxCell id="29" value="" style="rhombus;whiteSpace=wrap;html=1;strokeColor=#424242;fontFamily=Tahoma;fontColor=#424242;fillColor=#FFFFFF;" vertex="1" parent="1">
                    <mxGeometry x="628.92" y="850" width="80" height="40" as="geometry"/>
                </mxCell>
                <mxCell id="30" value="Emprestado" style="text;html=1;strokeColor=none;fillColor=none;align=center;verticalAlign=middle;whiteSpace=wrap;rounded=0;fontFamily=Tahoma;fontColor=#424242;fontSize=10;" vertex="1" parent="1">
                    <mxGeometry x="638.92" y="855" width="60" height="30" as="geometry"/>
                </mxCell>
                <mxCell id="31" style="edgeStyle=none;html=1;entryX=0.5;entryY=0;entryDx=0;entryDy=0;strokeColor=#424242;fontFamily=Tahoma;fontSize=10;fontColor=#424242;endArrow=none;endFill=0;" edge="1" parent="1" source="32" target="11">
                    <mxGeometry relative="1" as="geometry"/>
                </mxCell>
                <mxCell id="32" value="" style="rhombus;whiteSpace=wrap;html=1;strokeColor=#424242;fontFamily=Tahoma;fontColor=#424242;fillColor=#FFFFFF;" vertex="1" parent="1">
                    <mxGeometry x="548.92" y="1050" width="80" height="40" as="geometry"/>
                </mxCell>
                <mxCell id="33" value="Empresta" style="text;html=1;strokeColor=none;fillColor=none;align=center;verticalAlign=middle;whiteSpace=wrap;rounded=0;fontFamily=Tahoma;fontColor=#424242;fontSize=10;" vertex="1" parent="1">
                    <mxGeometry x="558.92" y="1055" width="60" height="30" as="geometry"/>
                </mxCell>
                <mxCell id="331" style="edgeStyle=none;html=1;exitX=1;exitY=0.5;exitDx=0;exitDy=0;entryX=0.5;entryY=1;entryDx=0;entryDy=0;strokeColor=#424242;endArrow=none;endFill=0;" edge="1" parent="1" source="36" target="19">
                    <mxGeometry relative="1" as="geometry">
                        <Array as="points">
                            <mxPoint x="949.92" y="1150"/>
                        </Array>
                    </mxGeometry>
                </mxCell>
                <mxCell id="36" value="" style="rhombus;whiteSpace=wrap;html=1;strokeColor=#424242;fontFamily=Tahoma;fontColor=#424242;fillColor=#FFFFFF;" vertex="1" parent="1">
                    <mxGeometry x="748.92" y="1130" width="80" height="40" as="geometry"/>
                </mxCell>
                <mxCell id="37" value="Realiza" style="text;html=1;strokeColor=none;fillColor=none;align=center;verticalAlign=middle;whiteSpace=wrap;rounded=0;fontFamily=Tahoma;fontColor=#424242;fontSize=10;" vertex="1" parent="1">
                    <mxGeometry x="758.92" y="1135" width="60" height="30" as="geometry"/>
                </mxCell>
                <mxCell id="348" style="edgeStyle=none;html=1;exitX=1;exitY=0.5;exitDx=0;exitDy=0;entryX=0;entryY=0.5;entryDx=0;entryDy=0;strokeColor=#424242;endArrow=none;endFill=0;" edge="1" parent="1" source="42" target="21">
                    <mxGeometry relative="1" as="geometry"/>
                </mxCell>
                <mxCell id="42" value="" style="rhombus;whiteSpace=wrap;html=1;strokeColor=#424242;fontFamily=Tahoma;fontColor=#424242;fillColor=#FFFFFF;" vertex="1" parent="1">
                    <mxGeometry x="745.92" y="600" width="80" height="40" as="geometry"/>
                </mxCell>
                <mxCell id="53" style="edgeStyle=orthogonalEdgeStyle;html=1;entryX=0.5;entryY=0;entryDx=0;entryDy=0;strokeColor=#424242;fontFamily=Tahoma;fontSize=9;fontColor=#424242;endArrow=none;endFill=0;" edge="1" parent="1" source="54">
                    <mxGeometry relative="1" as="geometry">
                        <mxPoint x="349.99999999999994" y="832.88" as="targetPoint"/>
                        <Array as="points">
                            <mxPoint x="349.99999999999994" y="797.88"/>
                        </Array>
                    </mxGeometry>
                </mxCell>
                <mxCell id="54" value="" style="ellipse;whiteSpace=wrap;html=1;aspect=fixed;strokeColor=#424242;fontFamily=Tahoma;fontSize=8;fontColor=#424242;fillColor=#424242;spacing=2;fillStyle=auto;" vertex="1" parent="1">
                    <mxGeometry x="319.99999999999994" y="792.88" width="10" height="10" as="geometry"/>
                </mxCell>
                <mxCell id="55" style="edgeStyle=orthogonalEdgeStyle;html=1;strokeColor=#424242;fontFamily=Tahoma;fontSize=9;fontColor=#424242;endArrow=none;endFill=0;exitX=1;exitY=0.5;exitDx=0;exitDy=0;" edge="1" parent="1" source="56">
                    <mxGeometry relative="1" as="geometry">
                        <mxPoint x="339.99999999999994" y="832.88" as="targetPoint"/>
                        <Array as="points">
                            <mxPoint x="339.99999999999994" y="817.88"/>
                        </Array>
                    </mxGeometry>
                </mxCell>
                <mxCell id="56" value="" style="ellipse;whiteSpace=wrap;html=1;aspect=fixed;strokeColor=#424242;fontFamily=Tahoma;fontSize=8;fontColor=#424242;fillColor=#FFFFFF;spacing=2;fillStyle=auto;" vertex="1" parent="1">
                    <mxGeometry x="319.99999999999994" y="812.88" width="10" height="10" as="geometry"/>
                </mxCell>
                <mxCell id="57" value="ID_Genero" style="text;html=1;strokeColor=none;fillColor=none;align=right;verticalAlign=middle;whiteSpace=wrap;rounded=0;fontFamily=Tahoma;fontColor=#424242;fontSize=9;" vertex="1" parent="1">
                    <mxGeometry x="259.99999999999994" y="792.88" width="60" height="10" as="geometry"/>
                </mxCell>
                <mxCell id="58" value="Nome" style="text;html=1;strokeColor=none;fillColor=none;align=right;verticalAlign=middle;whiteSpace=wrap;rounded=0;fontFamily=Tahoma;fontColor=#424242;fontSize=9;" vertex="1" parent="1">
                    <mxGeometry x="259.99999999999994" y="812.88" width="60" height="10" as="geometry"/>
                </mxCell>
                <mxCell id="65" value="" style="ellipse;whiteSpace=wrap;html=1;aspect=fixed;strokeColor=#424242;fontFamily=Tahoma;fontSize=8;fontColor=#424242;fillColor=#FFFFFF;spacing=2;fillStyle=auto;" vertex="1" parent="1">
                    <mxGeometry x="634.91" y="370" width="10" height="10" as="geometry"/>
                </mxCell>
                <mxCell id="66" value="" style="ellipse;whiteSpace=wrap;html=1;aspect=fixed;strokeColor=#424242;fontFamily=Tahoma;fontSize=8;fontColor=#424242;fillColor=#FFFFFF;spacing=2;fillStyle=auto;" vertex="1" parent="1">
                    <mxGeometry x="634.91" y="390" width="10" height="10" as="geometry"/>
                </mxCell>
                <mxCell id="67" value="ISBN" style="text;html=1;strokeColor=none;fillColor=none;align=right;verticalAlign=middle;whiteSpace=wrap;rounded=0;fontFamily=Tahoma;fontColor=#424242;fontSize=9;" vertex="1" parent="1">
                    <mxGeometry x="574.91" y="370" width="60" height="10" as="geometry"/>
                </mxCell>
                <mxCell id="68" value="ID_Autor" style="text;html=1;strokeColor=none;fillColor=none;align=right;verticalAlign=middle;whiteSpace=wrap;rounded=0;fontFamily=Tahoma;fontColor=#424242;fontSize=9;" vertex="1" parent="1">
                    <mxGeometry x="574.91" y="390" width="60" height="10" as="geometry"/>
                </mxCell>
                <mxCell id="72" style="edgeStyle=orthogonalEdgeStyle;html=1;entryX=0.5;entryY=0;entryDx=0;entryDy=0;strokeColor=#424242;fontFamily=Tahoma;fontSize=9;fontColor=#424242;endArrow=none;endFill=0;" edge="1" parent="1" source="65">
                    <mxGeometry relative="1" as="geometry">
                        <mxPoint x="664.91" y="410" as="targetPoint"/>
                        <Array as="points">
                            <mxPoint x="664.91" y="375"/>
                        </Array>
                    </mxGeometry>
                </mxCell>
                <mxCell id="73" style="edgeStyle=orthogonalEdgeStyle;html=1;strokeColor=#424242;fontFamily=Tahoma;fontSize=9;fontColor=#424242;endArrow=none;endFill=0;exitX=1;exitY=0.5;exitDx=0;exitDy=0;" edge="1" parent="1" source="66">
                    <mxGeometry relative="1" as="geometry">
                        <mxPoint x="654.91" y="410" as="targetPoint"/>
                        <Array as="points">
                            <mxPoint x="654.91" y="395"/>
                        </Array>
                    </mxGeometry>
                </mxCell>
                <mxCell id="74" style="edgeStyle=orthogonalEdgeStyle;html=1;strokeColor=#424242;fontFamily=Tahoma;fontSize=9;fontColor=#424242;endArrow=none;endFill=0;entryX=0.136;entryY=-0.003;entryDx=0;entryDy=0;entryPerimeter=0;" edge="1" parent="1" source="75" target="21">
                    <mxGeometry relative="1" as="geometry">
                        <mxPoint x="876.92" y="582" as="targetPoint"/>
                        <Array as="points">
                            <mxPoint x="876.92" y="507"/>
                        </Array>
                    </mxGeometry>
                </mxCell>
                <mxCell id="75" value="" style="ellipse;whiteSpace=wrap;html=1;aspect=fixed;strokeColor=#424242;fontFamily=Tahoma;fontSize=8;fontColor=#424242;fillColor=#424242;spacing=2;fillStyle=auto;" vertex="1" parent="1">
                    <mxGeometry x="926.92" y="502" width="10" height="10" as="geometry"/>
                </mxCell>
                <mxCell id="76" value="ID_Editora" style="text;html=1;strokeColor=none;fillColor=none;align=left;verticalAlign=middle;whiteSpace=wrap;rounded=0;fontFamily=Tahoma;fontColor=#424242;fontSize=9;" vertex="1" parent="1">
                    <mxGeometry x="936.92" y="502" width="60" height="10" as="geometry"/>
                </mxCell>
                <mxCell id="77" style="edgeStyle=orthogonalEdgeStyle;html=1;strokeColor=#424242;fontFamily=Tahoma;fontSize=9;fontColor=#424242;endArrow=none;endFill=0;entryX=0.263;entryY=0.006;entryDx=0;entryDy=0;entryPerimeter=0;" edge="1" parent="1" source="78" target="21">
                    <mxGeometry relative="1" as="geometry">
                        <mxPoint x="886.92" y="590" as="targetPoint"/>
                        <Array as="points">
                            <mxPoint x="886.92" y="527"/>
                        </Array>
                    </mxGeometry>
                </mxCell>
                <mxCell id="78" value="" style="ellipse;whiteSpace=wrap;html=1;aspect=fixed;strokeColor=#424242;fontFamily=Tahoma;fontSize=8;fontColor=#424242;fillColor=#FFFFFF;spacing=2;fillStyle=auto;" vertex="1" parent="1">
                    <mxGeometry x="926.92" y="522" width="10" height="10" as="geometry"/>
                </mxCell>
                <mxCell id="79" value="&lt;div style=&quot;text-align: right;&quot;&gt;ID_Endereco_Editora&lt;/div&gt;" style="text;html=1;strokeColor=none;fillColor=none;align=left;verticalAlign=middle;whiteSpace=wrap;rounded=0;fontFamily=Tahoma;fontColor=#424242;fontSize=9;" vertex="1" parent="1">
                    <mxGeometry x="936.92" y="522" width="60" height="10" as="geometry"/>
                </mxCell>
                <mxCell id="80" style="edgeStyle=orthogonalEdgeStyle;html=1;strokeColor=#424242;fontFamily=Tahoma;fontSize=9;fontColor=#424242;endArrow=none;endFill=0;entryX=0.391;entryY=-0.005;entryDx=0;entryDy=0;entryPerimeter=0;" edge="1" parent="1" source="81" target="21">
                    <mxGeometry relative="1" as="geometry">
                        <mxPoint x="896.92" y="590" as="targetPoint"/>
                        <Array as="points">
                            <mxPoint x="896.92" y="547"/>
                            <mxPoint x="896.92" y="567"/>
                            <mxPoint x="896.92" y="567"/>
                        </Array>
                    </mxGeometry>
                </mxCell>
                <mxCell id="81" value="" style="ellipse;whiteSpace=wrap;html=1;aspect=fixed;strokeColor=#424242;fontFamily=Tahoma;fontSize=8;fontColor=#424242;fillColor=#FFFFFF;spacing=2;fillStyle=auto;" vertex="1" parent="1">
                    <mxGeometry x="926.92" y="542" width="10" height="10" as="geometry"/>
                </mxCell>
                <mxCell id="82" style="edgeStyle=orthogonalEdgeStyle;html=1;strokeColor=#424242;fontFamily=Tahoma;fontSize=9;fontColor=#424242;endArrow=none;endFill=0;exitX=0;exitY=0.5;exitDx=0;exitDy=0;entryX=0.514;entryY=-0.011;entryDx=0;entryDy=0;entryPerimeter=0;" edge="1" parent="1" source="83" target="21">
                    <mxGeometry relative="1" as="geometry">
                        <mxPoint x="906.92" y="582" as="targetPoint"/>
                    </mxGeometry>
                </mxCell>
                <mxCell id="83" value="" style="ellipse;whiteSpace=wrap;html=1;aspect=fixed;strokeColor=#424242;fontFamily=Tahoma;fontSize=8;fontColor=#424242;fillColor=#FFFFFF;spacing=2;fillStyle=auto;" vertex="1" parent="1">
                    <mxGeometry x="926.92" y="562" width="10" height="10" as="geometry"/>
                </mxCell>
                <mxCell id="84" value="Nome" style="text;html=1;strokeColor=none;fillColor=none;align=left;verticalAlign=middle;whiteSpace=wrap;rounded=0;fontFamily=Tahoma;fontColor=#424242;fontSize=9;" vertex="1" parent="1">
                    <mxGeometry x="936.92" y="542" width="60" height="10" as="geometry"/>
                </mxCell>
                <mxCell id="85" value="Telefone" style="text;html=1;strokeColor=none;fillColor=none;align=left;verticalAlign=middle;whiteSpace=wrap;rounded=0;fontFamily=Tahoma;fontColor=#424242;fontSize=9;" vertex="1" parent="1">
                    <mxGeometry x="936.92" y="562" width="60" height="10" as="geometry"/>
                </mxCell>
                <mxCell id="86" style="edgeStyle=orthogonalEdgeStyle;html=1;strokeColor=#424242;fontFamily=Tahoma;fontSize=9;fontColor=#424242;endArrow=none;endFill=0;entryX=0.628;entryY=-0.002;entryDx=0;entryDy=0;entryPerimeter=0;" edge="1" parent="1" source="87">
                    <mxGeometry relative="1" as="geometry">
                        <mxPoint x="674.2099999999999" y="769.8" as="targetPoint"/>
                        <Array as="points">
                            <mxPoint x="673.9699999999999" y="694.88"/>
                        </Array>
                    </mxGeometry>
                </mxCell>
                <mxCell id="87" value="" style="ellipse;whiteSpace=wrap;html=1;aspect=fixed;strokeColor=#424242;fontFamily=Tahoma;fontSize=8;fontColor=#424242;fillColor=#FFFFFF;spacing=2;fillStyle=auto;" vertex="1" parent="1">
                    <mxGeometry x="713.9699999999999" y="689.88" width="10" height="10" as="geometry"/>
                </mxCell>
                <mxCell id="88" value="Titulo" style="text;html=1;strokeColor=none;fillColor=none;align=left;verticalAlign=middle;whiteSpace=wrap;rounded=0;fontFamily=Tahoma;fontColor=#424242;fontSize=9;" vertex="1" parent="1">
                    <mxGeometry x="723.9699999999999" y="689.88" width="80" height="10" as="geometry"/>
                </mxCell>
                <mxCell id="89" style="edgeStyle=orthogonalEdgeStyle;html=1;strokeColor=#424242;fontFamily=Tahoma;fontSize=9;fontColor=#424242;endArrow=none;endFill=0;" edge="1" parent="1" source="90">
                    <mxGeometry relative="1" as="geometry">
                        <mxPoint x="683.9699999999999" y="769.88" as="targetPoint"/>
                        <Array as="points">
                            <mxPoint x="683.9699999999999" y="734.88"/>
                            <mxPoint x="683.9699999999999" y="754.88"/>
                        </Array>
                    </mxGeometry>
                </mxCell>
                <mxCell id="90" value="" style="ellipse;whiteSpace=wrap;html=1;aspect=fixed;strokeColor=#424242;fontFamily=Tahoma;fontSize=8;fontColor=#424242;fillColor=#FFFFFF;spacing=2;fillStyle=auto;" vertex="1" parent="1">
                    <mxGeometry x="713.9699999999999" y="709.88" width="10" height="10" as="geometry"/>
                </mxCell>
                <mxCell id="91" style="edgeStyle=orthogonalEdgeStyle;html=1;entryX=0.75;entryY=0;entryDx=0;entryDy=0;strokeColor=#424242;fontFamily=Tahoma;fontSize=9;fontColor=#424242;endArrow=none;endFill=0;exitX=0;exitY=0.5;exitDx=0;exitDy=0;" edge="1" parent="1" source="92">
                    <mxGeometry relative="1" as="geometry">
                        <mxPoint x="693.9699999999999" y="769.88" as="targetPoint"/>
                    </mxGeometry>
                </mxCell>
                <mxCell id="92" value="" style="ellipse;whiteSpace=wrap;html=1;aspect=fixed;strokeColor=#424242;fontFamily=Tahoma;fontSize=8;fontColor=#424242;fillColor=#FFFFFF;spacing=2;fillStyle=auto;" vertex="1" parent="1">
                    <mxGeometry x="713.9699999999999" y="729.88" width="10" height="10" as="geometry"/>
                </mxCell>
                <mxCell id="93" value="Ano_Publicacao" style="text;html=1;strokeColor=none;fillColor=none;align=left;verticalAlign=middle;whiteSpace=wrap;rounded=0;fontFamily=Tahoma;fontColor=#424242;fontSize=9;" vertex="1" parent="1">
                    <mxGeometry x="723.9699999999999" y="709.88" width="80" height="10" as="geometry"/>
                </mxCell>
                <mxCell id="94" value="Edicao" style="text;html=1;strokeColor=none;fillColor=none;align=left;verticalAlign=middle;whiteSpace=wrap;rounded=0;fontFamily=Tahoma;fontColor=#424242;fontSize=9;" vertex="1" parent="1">
                    <mxGeometry x="723.9699999999999" y="729.88" width="80" height="10" as="geometry"/>
                </mxCell>
                <mxCell id="95" style="edgeStyle=orthogonalEdgeStyle;html=1;entryX=0.388;entryY=0;entryDx=0;entryDy=0;entryPerimeter=0;strokeColor=#424242;fontFamily=Tahoma;fontSize=9;fontColor=#424242;endArrow=none;endFill=0;" edge="1" parent="1" source="96">
                    <mxGeometry relative="1" as="geometry">
                        <mxPoint x="655.0100000000001" y="769.88" as="targetPoint"/>
                        <Array as="points">
                            <mxPoint x="654.9699999999999" y="694.88"/>
                        </Array>
                    </mxGeometry>
                </mxCell>
                <mxCell id="96" value="" style="ellipse;whiteSpace=wrap;html=1;aspect=fixed;strokeColor=#424242;fontFamily=Tahoma;fontSize=8;fontColor=#424242;fillColor=#424242;spacing=2;fillStyle=auto;" vertex="1" parent="1">
                    <mxGeometry x="608.92" y="689.88" width="10" height="10" as="geometry"/>
                </mxCell>
                <mxCell id="97" value="ISBN" style="text;html=1;strokeColor=none;fillColor=none;align=right;verticalAlign=middle;whiteSpace=wrap;rounded=0;fontFamily=Tahoma;fontColor=#424242;fontSize=9;" vertex="1" parent="1">
                    <mxGeometry x="548.92" y="689.88" width="60" height="10" as="geometry"/>
                </mxCell>
                <mxCell id="98" style="edgeStyle=orthogonalEdgeStyle;html=1;entryX=0.25;entryY=0;entryDx=0;entryDy=0;strokeColor=#424242;fontFamily=Tahoma;fontSize=9;fontColor=#424242;endArrow=none;endFill=0;" edge="1" parent="1" source="99">
                    <mxGeometry relative="1" as="geometry">
                        <mxPoint x="643.97" y="769.88" as="targetPoint"/>
                        <Array as="points">
                            <mxPoint x="644.9699999999999" y="714.88"/>
                            <mxPoint x="644.9699999999999" y="769.88"/>
                        </Array>
                    </mxGeometry>
                </mxCell>
                <mxCell id="99" value="" style="ellipse;whiteSpace=wrap;html=1;aspect=fixed;strokeColor=#424242;fontFamily=Tahoma;fontSize=8;fontColor=#424242;fillColor=#FFFFFF;spacing=2;fillStyle=auto;" vertex="1" parent="1">
                    <mxGeometry x="608.92" y="709.88" width="10" height="10" as="geometry"/>
                </mxCell>
                <mxCell id="100" style="edgeStyle=orthogonalEdgeStyle;html=1;strokeColor=#424242;fontFamily=Tahoma;fontSize=9;fontColor=#424242;endArrow=none;endFill=0;exitX=1;exitY=0.5;exitDx=0;exitDy=0;entryX=0.139;entryY=0.006;entryDx=0;entryDy=0;entryPerimeter=0;" edge="1" parent="1" source="101">
                    <mxGeometry relative="1" as="geometry">
                        <mxPoint x="635.09" y="770.12" as="targetPoint"/>
                        <Array as="points">
                            <mxPoint x="634.9699999999999" y="734.88"/>
                            <mxPoint x="634.9699999999999" y="749.88"/>
                        </Array>
                    </mxGeometry>
                </mxCell>
                <mxCell id="101" value="" style="ellipse;whiteSpace=wrap;html=1;aspect=fixed;strokeColor=#424242;fontFamily=Tahoma;fontSize=8;fontColor=#424242;fillColor=#FFFFFF;spacing=2;fillStyle=auto;" vertex="1" parent="1">
                    <mxGeometry x="608.92" y="729.88" width="10" height="10" as="geometry"/>
                </mxCell>
                <mxCell id="102" value="ID_Editora" style="text;html=1;strokeColor=none;fillColor=none;align=right;verticalAlign=middle;whiteSpace=wrap;rounded=0;fontFamily=Tahoma;fontColor=#424242;fontSize=9;" vertex="1" parent="1">
                    <mxGeometry x="548.92" y="709.88" width="60" height="10" as="geometry"/>
                </mxCell>
                <mxCell id="103" value="ID_Genero" style="text;html=1;strokeColor=none;fillColor=none;align=right;verticalAlign=middle;whiteSpace=wrap;rounded=0;fontFamily=Tahoma;fontColor=#424242;fontSize=9;" vertex="1" parent="1">
                    <mxGeometry x="548.92" y="729.88" width="60" height="10" as="geometry"/>
                </mxCell>
                <mxCell id="104" style="edgeStyle=orthogonalEdgeStyle;html=1;strokeColor=#424242;fontFamily=Tahoma;fontSize=9;fontColor=#424242;endArrow=none;endFill=0;entryX=1;entryY=0.5;entryDx=0;entryDy=0;exitX=0;exitY=0.5;exitDx=0;exitDy=0;" edge="1" parent="1" source="105" target="18">
                    <mxGeometry relative="1" as="geometry">
                        <mxPoint x="733.92" y="990" as="targetPoint"/>
                        <Array as="points">
                            <mxPoint x="729.92" y="930"/>
                            <mxPoint x="729.92" y="950"/>
                        </Array>
                    </mxGeometry>
                </mxCell>
                <mxCell id="105" value="" style="ellipse;whiteSpace=wrap;html=1;aspect=fixed;strokeColor=#424242;fontFamily=Tahoma;fontSize=8;fontColor=#424242;fillColor=#FFFFFF;spacing=2;fillStyle=auto;" vertex="1" parent="1">
                    <mxGeometry x="748.92" y="925" width="10" height="10" as="geometry"/>
                </mxCell>
                <mxCell id="106" value="&lt;span style=&quot;text-align: right;&quot;&gt;Data_Emprestimo&lt;/span&gt;" style="text;html=1;strokeColor=none;fillColor=none;align=left;verticalAlign=middle;whiteSpace=wrap;rounded=0;fontFamily=Tahoma;fontColor=#424242;fontSize=9;" vertex="1" parent="1">
                    <mxGeometry x="758.92" y="925" width="60" height="10" as="geometry"/>
                </mxCell>
                <mxCell id="107" style="edgeStyle=orthogonalEdgeStyle;html=1;strokeColor=#424242;fontFamily=Tahoma;fontSize=9;fontColor=#424242;endArrow=none;endFill=0;exitX=0;exitY=0.5;exitDx=0;exitDy=0;" edge="1" parent="1" source="108">
                    <mxGeometry relative="1" as="geometry">
                        <mxPoint x="708.92" y="950" as="targetPoint"/>
                        <Array as="points">
                            <mxPoint x="739.92" y="950"/>
                            <mxPoint x="739.92" y="950"/>
                        </Array>
                    </mxGeometry>
                </mxCell>
                <mxCell id="108" value="" style="ellipse;whiteSpace=wrap;html=1;aspect=fixed;strokeColor=#424242;fontFamily=Tahoma;fontSize=8;fontColor=#424242;fillColor=#FFFFFF;spacing=2;fillStyle=auto;" vertex="1" parent="1">
                    <mxGeometry x="748.92" y="945" width="10" height="10" as="geometry"/>
                </mxCell>
                <mxCell id="109" value="Data_Devolucao_Prevista" style="text;html=1;strokeColor=none;fillColor=none;align=left;verticalAlign=middle;whiteSpace=wrap;rounded=0;fontFamily=Tahoma;fontColor=#424242;fontSize=9;" vertex="1" parent="1">
                    <mxGeometry x="758.92" y="945" width="60" height="10" as="geometry"/>
                </mxCell>
                <mxCell id="110" style="edgeStyle=orthogonalEdgeStyle;html=1;strokeColor=#424242;fontFamily=Tahoma;fontSize=9;fontColor=#424242;endArrow=none;endFill=0;exitX=0;exitY=0.5;exitDx=0;exitDy=0;" edge="1" parent="1" source="111">
                    <mxGeometry relative="1" as="geometry">
                        <mxPoint x="708.92" y="950" as="targetPoint"/>
                        <Array as="points">
                            <mxPoint x="729.92" y="970"/>
                            <mxPoint x="729.92" y="950"/>
                        </Array>
                    </mxGeometry>
                </mxCell>
                <mxCell id="111" value="" style="ellipse;whiteSpace=wrap;html=1;aspect=fixed;strokeColor=#424242;fontFamily=Tahoma;fontSize=8;fontColor=#424242;fillColor=#FFFFFF;spacing=2;fillStyle=auto;" vertex="1" parent="1">
                    <mxGeometry x="748.92" y="965" width="10" height="10" as="geometry"/>
                </mxCell>
                <mxCell id="114" value="Data_Devolucao_Real" style="text;html=1;strokeColor=none;fillColor=none;align=left;verticalAlign=middle;whiteSpace=wrap;rounded=0;fontFamily=Tahoma;fontColor=#424242;fontSize=9;" vertex="1" parent="1">
                    <mxGeometry x="758.92" y="965" width="60" height="10" as="geometry"/>
                </mxCell>
                <mxCell id="116" style="edgeStyle=orthogonalEdgeStyle;html=1;strokeColor=#424242;fontFamily=Tahoma;fontSize=9;fontColor=#424242;endArrow=none;endFill=0;" edge="1" parent="1" source="117">
                    <mxGeometry relative="1" as="geometry">
                        <mxPoint x="628.92" y="950" as="targetPoint"/>
                        <Array as="points">
                            <mxPoint x="618.92" y="930"/>
                            <mxPoint x="618.92" y="950"/>
                        </Array>
                    </mxGeometry>
                </mxCell>
                <mxCell id="117" value="" style="ellipse;whiteSpace=wrap;html=1;aspect=fixed;strokeColor=#424242;fontFamily=Tahoma;fontSize=8;fontColor=#424242;fillColor=#424242;spacing=2;fillStyle=auto;" vertex="1" parent="1">
                    <mxGeometry x="578.92" y="925" width="10" height="10" as="geometry"/>
                </mxCell>
                <mxCell id="118" value="RA_Aluno" style="text;html=1;strokeColor=none;fillColor=none;align=right;verticalAlign=middle;whiteSpace=wrap;rounded=0;fontFamily=Tahoma;fontColor=#424242;fontSize=9;" vertex="1" parent="1">
                    <mxGeometry x="518.92" y="925" width="60" height="10" as="geometry"/>
                </mxCell>
                <mxCell id="119" style="edgeStyle=orthogonalEdgeStyle;html=1;entryX=0;entryY=0.5;entryDx=0;entryDy=0;strokeColor=#424242;fontFamily=Tahoma;fontSize=9;fontColor=#424242;endArrow=none;endFill=0;" edge="1" parent="1" source="120" target="18">
                    <mxGeometry relative="1" as="geometry"/>
                </mxCell>
                <mxCell id="120" value="" style="ellipse;whiteSpace=wrap;html=1;aspect=fixed;strokeColor=#424242;fontFamily=Tahoma;fontSize=8;fontColor=#424242;fillColor=#FFFFFF;spacing=2;fillStyle=auto;" vertex="1" parent="1">
                    <mxGeometry x="578.92" y="945" width="10" height="10" as="geometry"/>
                </mxCell>
                <mxCell id="121" style="edgeStyle=orthogonalEdgeStyle;html=1;strokeColor=#424242;fontFamily=Tahoma;fontSize=9;fontColor=#424242;endArrow=none;endFill=0;" edge="1" parent="1" source="122">
                    <mxGeometry relative="1" as="geometry">
                        <mxPoint x="628.92" y="950" as="targetPoint"/>
                        <Array as="points">
                            <mxPoint x="618.92" y="970"/>
                            <mxPoint x="618.92" y="950"/>
                        </Array>
                    </mxGeometry>
                </mxCell>
                <mxCell id="122" value="" style="ellipse;whiteSpace=wrap;html=1;aspect=fixed;strokeColor=#424242;fontFamily=Tahoma;fontSize=8;fontColor=#424242;fillColor=#FFFFFF;spacing=2;fillStyle=auto;" vertex="1" parent="1">
                    <mxGeometry x="578.92" y="965" width="10" height="10" as="geometry"/>
                </mxCell>
                <mxCell id="123" value="ISBN" style="text;html=1;strokeColor=none;fillColor=none;align=right;verticalAlign=middle;whiteSpace=wrap;rounded=0;fontFamily=Tahoma;fontColor=#424242;fontSize=9;" vertex="1" parent="1">
                    <mxGeometry x="518.92" y="945" width="60" height="10" as="geometry"/>
                </mxCell>
                <mxCell id="124" value="&lt;span style=&quot;text-align: left;&quot;&gt;Multa_Atraso&lt;/span&gt;" style="text;html=1;strokeColor=none;fillColor=none;align=right;verticalAlign=middle;whiteSpace=wrap;rounded=0;fontFamily=Tahoma;fontColor=#424242;fontSize=9;" vertex="1" parent="1">
                    <mxGeometry x="518.92" y="965" width="60" height="10" as="geometry"/>
                </mxCell>
                <mxCell id="125" value="ID_Endereco" style="text;html=1;strokeColor=none;fillColor=none;align=right;verticalAlign=middle;whiteSpace=wrap;rounded=0;fontFamily=Tahoma;fontColor=#424242;fontSize=9;" vertex="1" parent="1">
                    <mxGeometry x="428.91999999999996" y="1105" width="60" height="10" as="geometry"/>
                </mxCell>
                <mxCell id="126" style="edgeStyle=orthogonalEdgeStyle;html=1;entryX=0;entryY=0.5;entryDx=0;entryDy=0;strokeColor=#424242;fontFamily=Tahoma;fontSize=9;fontColor=#424242;endArrow=none;endFill=0;exitX=1;exitY=0.5;exitDx=0;exitDy=0;" edge="1" parent="1" source="316" target="11">
                    <mxGeometry relative="1" as="geometry">
                        <Array as="points">
                            <mxPoint x="529.92" y="1110"/>
                            <mxPoint x="529.92" y="1150"/>
                        </Array>
                        <mxPoint x="508.91999999999985" y="1110" as="sourcePoint"/>
                    </mxGeometry>
                </mxCell>
                <mxCell id="128" style="edgeStyle=orthogonalEdgeStyle;html=1;exitX=1;exitY=0.5;exitDx=0;exitDy=0;strokeColor=#424242;fontFamily=Tahoma;fontSize=9;fontColor=#424242;endArrow=none;endFill=0;" edge="1" parent="1" source="129">
                    <mxGeometry relative="1" as="geometry">
                        <mxPoint x="548.92" y="1150.0000000000002" as="targetPoint"/>
                        <Array as="points">
                            <mxPoint x="519.92" y="1130"/>
                            <mxPoint x="519.92" y="1150"/>
                        </Array>
                    </mxGeometry>
                </mxCell>
                <mxCell id="129" value="" style="ellipse;whiteSpace=wrap;html=1;aspect=fixed;strokeColor=#424242;fontFamily=Tahoma;fontSize=8;fontColor=#424242;fillColor=#FFFFFF;spacing=2;fillStyle=auto;" vertex="1" parent="1">
                    <mxGeometry x="488.91999999999996" y="1125" width="10" height="10" as="geometry"/>
                </mxCell>
                <mxCell id="130" value="Nome" style="text;html=1;strokeColor=none;fillColor=none;align=right;verticalAlign=middle;whiteSpace=wrap;rounded=0;fontFamily=Tahoma;fontColor=#424242;fontSize=9;" vertex="1" parent="1">
                    <mxGeometry x="428.91999999999996" y="1125" width="60" height="10" as="geometry"/>
                </mxCell>
                <mxCell id="131" style="edgeStyle=orthogonalEdgeStyle;html=1;entryX=0;entryY=0.5;entryDx=0;entryDy=0;strokeColor=#424242;fontFamily=Tahoma;fontSize=9;fontColor=#424242;endArrow=none;endFill=0;" edge="1" parent="1" source="132" target="11">
                    <mxGeometry relative="1" as="geometry"/>
                </mxCell>
                <mxCell id="132" value="" style="ellipse;whiteSpace=wrap;html=1;aspect=fixed;strokeColor=#424242;fontFamily=Tahoma;fontSize=8;fontColor=#424242;fillColor=#FFFFFF;spacing=2;fillStyle=auto;" vertex="1" parent="1">
                    <mxGeometry x="488.91999999999996" y="1145" width="10" height="10" as="geometry"/>
                </mxCell>
                <mxCell id="133" value="Data_Nascimento" style="text;html=1;strokeColor=none;fillColor=none;align=right;verticalAlign=middle;whiteSpace=wrap;rounded=0;fontFamily=Tahoma;fontColor=#424242;fontSize=9;" vertex="1" parent="1">
                    <mxGeometry x="428.91999999999996" y="1145" width="60" height="10" as="geometry"/>
                </mxCell>
                <mxCell id="134" style="edgeStyle=orthogonalEdgeStyle;html=1;entryX=0;entryY=0.5;entryDx=0;entryDy=0;strokeColor=#424242;fontFamily=Tahoma;fontSize=9;fontColor=#424242;endArrow=none;endFill=0;" edge="1" parent="1" source="135" target="11">
                    <mxGeometry relative="1" as="geometry">
                        <Array as="points">
                            <mxPoint x="519.92" y="1170"/>
                            <mxPoint x="519.92" y="1150"/>
                        </Array>
                    </mxGeometry>
                </mxCell>
                <mxCell id="135" value="" style="ellipse;whiteSpace=wrap;html=1;aspect=fixed;strokeColor=#424242;fontFamily=Tahoma;fontSize=8;fontColor=#424242;fillColor=#FFFFFF;spacing=2;fillStyle=auto;" vertex="1" parent="1">
                    <mxGeometry x="488.91999999999996" y="1165" width="10" height="10" as="geometry"/>
                </mxCell>
                <mxCell id="136" style="edgeStyle=orthogonalEdgeStyle;html=1;entryX=0;entryY=0.5;entryDx=0;entryDy=0;strokeColor=#424242;fontFamily=Tahoma;fontSize=9;fontColor=#424242;endArrow=none;endFill=0;exitX=1;exitY=0.5;exitDx=0;exitDy=0;" edge="1" parent="1" target="11" source="220">
                    <mxGeometry relative="1" as="geometry">
                        <Array as="points">
                            <mxPoint x="529.92" y="1190"/>
                            <mxPoint x="529.92" y="1150"/>
                        </Array>
                        <mxPoint x="509.91999999999996" y="1190.0000000000002" as="sourcePoint"/>
                    </mxGeometry>
                </mxCell>
                <mxCell id="137" value="Telefone" style="text;html=1;strokeColor=none;fillColor=none;align=right;verticalAlign=middle;whiteSpace=wrap;rounded=0;fontFamily=Tahoma;fontColor=#424242;fontSize=9;" vertex="1" parent="1">
                    <mxGeometry x="428.91999999999996" y="1165" width="60" height="10" as="geometry"/>
                </mxCell>
                <mxCell id="138" style="edgeStyle=orthogonalEdgeStyle;html=1;strokeColor=#424242;fontFamily=Tahoma;fontSize=9;fontColor=#424242;endArrow=none;endFill=0;exitX=0;exitY=0.5;exitDx=0;exitDy=0;" edge="1" parent="1" source="142">
                    <mxGeometry relative="1" as="geometry">
                        <mxPoint x="989.92" y="950.0000000000002" as="targetPoint"/>
                        <Array as="points">
                            <mxPoint x="1010.92" y="910"/>
                            <mxPoint x="1010.92" y="950"/>
                        </Array>
                    </mxGeometry>
                </mxCell>
                <mxCell id="327" style="edgeStyle=none;html=1;exitX=0;exitY=0.5;exitDx=0;exitDy=0;entryX=1;entryY=0.5;entryDx=0;entryDy=0;strokeColor=#424242;endArrow=none;endFill=0;" edge="1" parent="1" source="139" target="19">
                    <mxGeometry relative="1" as="geometry">
                        <Array as="points">
                            <mxPoint x="1000.92" y="890"/>
                            <mxPoint x="1000.92" y="950"/>
                        </Array>
                    </mxGeometry>
                </mxCell>
                <mxCell id="139" value="" style="ellipse;whiteSpace=wrap;html=1;aspect=fixed;strokeColor=#424242;fontFamily=Tahoma;fontSize=8;fontColor=#424242;fillColor=#424242;spacing=2;fillStyle=auto;" vertex="1" parent="1">
                    <mxGeometry x="1040.92" y="885" width="10" height="10" as="geometry"/>
                </mxCell>
                <mxCell id="140" value="ID_Reserva" style="text;html=1;strokeColor=none;fillColor=none;align=left;verticalAlign=middle;whiteSpace=wrap;rounded=0;fontFamily=Tahoma;fontColor=#424242;fontSize=9;" vertex="1" parent="1">
                    <mxGeometry x="1050.92" y="885" width="60" height="10" as="geometry"/>
                </mxCell>
                <mxCell id="141" style="edgeStyle=orthogonalEdgeStyle;html=1;strokeColor=#424242;fontFamily=Tahoma;fontSize=9;fontColor=#424242;endArrow=none;endFill=0;exitX=0;exitY=0.5;exitDx=0;exitDy=0;" edge="1" parent="1" source="145">
                    <mxGeometry relative="1" as="geometry">
                        <mxPoint x="989.92" y="950.0000000000002" as="targetPoint"/>
                        <Array as="points">
                            <mxPoint x="1020.92" y="930"/>
                            <mxPoint x="1020.92" y="950"/>
                        </Array>
                    </mxGeometry>
                </mxCell>
                <mxCell id="142" value="" style="ellipse;whiteSpace=wrap;html=1;aspect=fixed;strokeColor=#424242;fontFamily=Tahoma;fontSize=8;fontColor=#424242;fillColor=#FFFFFF;spacing=2;fillStyle=auto;" vertex="1" parent="1">
                    <mxGeometry x="1040.92" y="905" width="10" height="10" as="geometry"/>
                </mxCell>
                <mxCell id="143" value="RA_Aluno" style="text;html=1;strokeColor=none;fillColor=none;align=left;verticalAlign=middle;whiteSpace=wrap;rounded=0;fontFamily=Tahoma;fontColor=#424242;fontSize=9;" vertex="1" parent="1">
                    <mxGeometry x="1050.92" y="905" width="60" height="10" as="geometry"/>
                </mxCell>
                <mxCell id="144" style="edgeStyle=orthogonalEdgeStyle;html=1;entryX=1;entryY=0.5;entryDx=0;entryDy=0;strokeColor=#424242;fontFamily=Tahoma;fontSize=9;fontColor=#424242;endArrow=none;endFill=0;exitX=0;exitY=0.5;exitDx=0;exitDy=0;" edge="1" parent="1" source="294" target="19">
                    <mxGeometry relative="1" as="geometry">
                        <Array as="points">
                            <mxPoint x="1020.92" y="970"/>
                            <mxPoint x="1020.92" y="950"/>
                        </Array>
                    </mxGeometry>
                </mxCell>
                <mxCell id="145" value="" style="ellipse;whiteSpace=wrap;html=1;aspect=fixed;strokeColor=#424242;fontFamily=Tahoma;fontSize=8;fontColor=#424242;fillColor=#FFFFFF;spacing=2;fillStyle=auto;" vertex="1" parent="1">
                    <mxGeometry x="1040.92" y="925" width="10" height="10" as="geometry"/>
                </mxCell>
                <mxCell id="146" style="edgeStyle=orthogonalEdgeStyle;html=1;entryX=1;entryY=0.5;entryDx=0;entryDy=0;strokeColor=#424242;fontFamily=Tahoma;fontSize=9;fontColor=#424242;endArrow=none;endFill=0;exitX=0;exitY=0.5;exitDx=0;exitDy=0;" edge="1" parent="1" source="292" target="19">
                    <mxGeometry relative="1" as="geometry">
                        <Array as="points">
                            <mxPoint x="1010.92" y="990"/>
                            <mxPoint x="1010.92" y="950"/>
                        </Array>
                    </mxGeometry>
                </mxCell>
                <mxCell id="289" value="" style="edgeStyle=none;html=1;strokeColor=#424242;endArrow=none;endFill=0;" edge="1" parent="1" source="147" target="149">
                    <mxGeometry relative="1" as="geometry"/>
                </mxCell>
                <mxCell id="325" style="edgeStyle=none;html=1;exitX=0;exitY=0.5;exitDx=0;exitDy=0;strokeColor=#424242;endArrow=none;endFill=0;" edge="1" parent="1" source="147">
                    <mxGeometry relative="1" as="geometry">
                        <mxPoint x="990.92" y="950.1111111111111" as="targetPoint"/>
                    </mxGeometry>
                </mxCell>
                <mxCell id="147" value="" style="ellipse;whiteSpace=wrap;html=1;aspect=fixed;strokeColor=#424242;fontFamily=Tahoma;fontSize=8;fontColor=#424242;fillColor=#FFFFFF;spacing=2;fillStyle=auto;" vertex="1" parent="1">
                    <mxGeometry x="1040.92" y="945" width="10" height="10" as="geometry"/>
                </mxCell>
                <mxCell id="148" value="&lt;span style=&quot;text-align: right;&quot;&gt;ISBN&lt;/span&gt;" style="text;html=1;strokeColor=none;fillColor=none;align=left;verticalAlign=middle;whiteSpace=wrap;rounded=0;fontFamily=Tahoma;fontColor=#424242;fontSize=9;" vertex="1" parent="1">
                    <mxGeometry x="1050.92" y="925" width="60" height="10" as="geometry"/>
                </mxCell>
                <mxCell id="149" value="Data_Reserva" style="text;html=1;strokeColor=none;fillColor=none;align=left;verticalAlign=middle;whiteSpace=wrap;rounded=0;fontFamily=Tahoma;fontColor=#424242;fontSize=9;" vertex="1" parent="1">
                    <mxGeometry x="1050.92" y="945" width="60" height="10" as="geometry"/>
                </mxCell>
                <mxCell id="163" style="edgeStyle=orthogonalEdgeStyle;html=1;strokeColor=#424242;fontFamily=Courier New;fontSize=10;fontColor=#424242;endArrow=none;endFill=0;entryX=1;entryY=0.5;entryDx=0;entryDy=0;exitX=0;exitY=0.5;exitDx=0;exitDy=0;" edge="1" parent="1" source="164" target="164">
                    <mxGeometry relative="1" as="geometry">
                        <mxPoint x="899.92" y="1230" as="targetPoint"/>
                        <Array as="points">
                            <mxPoint x="220" y="1500"/>
                            <mxPoint x="220" y="300"/>
                            <mxPoint x="1380" y="300"/>
                            <mxPoint x="1380" y="1500"/>
                        </Array>
                    </mxGeometry>
                </mxCell>
                <mxCell id="164" value="&lt;font style=&quot;font-size: 10px;&quot;&gt;Desenvolvido por Ariel Spencer Â© 2024 Todos os direitos reservados.&lt;/font&gt;" style="text;strokeColor=none;fillColor=none;html=1;fontSize=13;fontStyle=1;verticalAlign=middle;align=center;labelBackgroundColor=none;fontColor=#424242;fontFamily=Courier New;" vertex="1" parent="1">
                    <mxGeometry x="590" y="1480" width="419.5" height="40" as="geometry"/>
                </mxCell>
                <mxCell id="165" value="Livro" style="text;html=1;strokeColor=none;fillColor=none;align=center;verticalAlign=middle;whiteSpace=wrap;rounded=0;fontFamily=Tahoma;fontColor=#424242;" vertex="1" parent="1">
                    <mxGeometry x="638.92" y="782.5" width="60" height="15" as="geometry"/>
                </mxCell>
                <mxCell id="166" value="" style="rounded=0;whiteSpace=wrap;html=1;fillColor=#FFFFFF;strokeColor=#424242;" vertex="1" parent="1">
                    <mxGeometry x="633.67" y="935" width="70.5" height="30" as="geometry"/>
                </mxCell>
                <mxCell id="167" value="Aluno_Livro" style="text;html=1;strokeColor=none;fillColor=none;align=center;verticalAlign=middle;whiteSpace=wrap;rounded=0;fontFamily=Tahoma;fontColor=#424242;fontSize=11;" vertex="1" parent="1">
                    <mxGeometry x="638.92" y="942.5" width="60" height="15" as="geometry"/>
                </mxCell>
                <mxCell id="168" value="" style="rounded=0;whiteSpace=wrap;html=1;fillColor=#FFFFFF;strokeColor=#424242;" vertex="1" parent="1">
                    <mxGeometry x="629.67" y="415" width="70.5" height="30" as="geometry"/>
                </mxCell>
                <mxCell id="169" value="Livro_Autor" style="text;html=1;strokeColor=none;fillColor=none;align=center;verticalAlign=middle;whiteSpace=wrap;rounded=0;fontFamily=Tahoma;fontColor=#424242;" vertex="1" parent="1">
                    <mxGeometry x="634.92" y="422.5" width="60" height="15" as="geometry"/>
                </mxCell>
                <mxCell id="191" value="Endereco_Editora" style="text;html=1;strokeColor=none;fillColor=none;align=center;verticalAlign=middle;whiteSpace=wrap;rounded=0;fontFamily=Tahoma;fontColor=#424242;fontSize=7;" vertex="1" parent="1">
                    <mxGeometry x="1116.92" y="605" width="60" height="30" as="geometry"/>
                </mxCell>
                <mxCell id="192" style="edgeStyle=none;html=1;exitX=1;exitY=0.5;exitDx=0;exitDy=0;entryX=0;entryY=0.5;entryDx=0;entryDy=0;strokeColor=#424242;fontFamily=Tahoma;fontSize=10;fontColor=#424242;endArrow=none;endFill=0;" edge="1" parent="1" source="194" target="2">
                    <mxGeometry relative="1" as="geometry"/>
                </mxCell>
                <mxCell id="193" style="edgeStyle=none;html=1;exitX=0;exitY=0.5;exitDx=0;exitDy=0;entryX=1;entryY=0.5;entryDx=0;entryDy=0;strokeColor=#424242;fontSize=8;endArrow=none;endFill=0;" edge="1" parent="1" source="194" target="21">
                    <mxGeometry relative="1" as="geometry"/>
                </mxCell>
                <mxCell id="194" value="" style="rhombus;whiteSpace=wrap;html=1;strokeColor=#424242;fontFamily=Tahoma;fontColor=#424242;fillColor=#FFFFFF;" vertex="1" parent="1">
                    <mxGeometry x="986.92" y="600" width="80" height="40" as="geometry"/>
                </mxCell>
                <mxCell id="195" value="Localizada" style="text;html=1;strokeColor=none;fillColor=none;align=center;verticalAlign=middle;whiteSpace=wrap;rounded=0;fontFamily=Tahoma;fontColor=#424242;fontSize=10;" vertex="1" parent="1">
                    <mxGeometry x="996.92" y="605" width="60" height="30" as="geometry"/>
                </mxCell>
                <mxCell id="196" style="edgeStyle=orthogonalEdgeStyle;html=1;strokeColor=#424242;fontFamily=Tahoma;fontSize=9;fontColor=#424242;endArrow=none;endFill=0;exitX=0;exitY=0.5;exitDx=0;exitDy=0;" edge="1" parent="1" source="200">
                    <mxGeometry relative="1" as="geometry">
                        <mxPoint x="1186.92" y="620" as="targetPoint"/>
                        <Array as="points">
                            <mxPoint x="1206.92" y="580"/>
                            <mxPoint x="1206.92" y="620"/>
                        </Array>
                    </mxGeometry>
                </mxCell>
                <mxCell id="197" value="" style="ellipse;whiteSpace=wrap;html=1;aspect=fixed;strokeColor=#424242;fontFamily=Tahoma;fontSize=8;fontColor=#424242;fillColor=#424242;spacing=2;fillStyle=auto;" vertex="1" parent="1">
                    <mxGeometry x="1226.92" y="555" width="10" height="10" as="geometry"/>
                </mxCell>
                <mxCell id="198" value="&lt;span style=&quot;text-align: right;&quot;&gt;ID_Endereco_Editora&lt;/span&gt;" style="text;html=1;strokeColor=none;fillColor=none;align=left;verticalAlign=middle;whiteSpace=wrap;rounded=0;fontFamily=Tahoma;fontColor=#424242;fontSize=9;" vertex="1" parent="1">
                    <mxGeometry x="1236.92" y="555" width="60" height="10" as="geometry"/>
                </mxCell>
                <mxCell id="199" style="edgeStyle=orthogonalEdgeStyle;html=1;strokeColor=#424242;fontFamily=Tahoma;fontSize=9;fontColor=#424242;endArrow=none;endFill=0;exitX=0;exitY=0.5;exitDx=0;exitDy=0;" edge="1" parent="1" source="203">
                    <mxGeometry relative="1" as="geometry">
                        <mxPoint x="1186.92" y="620" as="targetPoint"/>
                        <Array as="points">
                            <mxPoint x="1216.92" y="600"/>
                            <mxPoint x="1216.92" y="620"/>
                        </Array>
                    </mxGeometry>
                </mxCell>
                <mxCell id="200" value="" style="ellipse;whiteSpace=wrap;html=1;aspect=fixed;strokeColor=#424242;fontFamily=Tahoma;fontSize=8;fontColor=#424242;fillColor=#FFFFFF;spacing=2;fillStyle=auto;" vertex="1" parent="1">
                    <mxGeometry x="1226.92" y="575" width="10" height="10" as="geometry"/>
                </mxCell>
                <mxCell id="201" value="&lt;span style=&quot;text-align: right;&quot;&gt;CEP&lt;/span&gt;" style="text;html=1;strokeColor=none;fillColor=none;align=left;verticalAlign=middle;whiteSpace=wrap;rounded=0;fontFamily=Tahoma;fontColor=#424242;fontSize=9;" vertex="1" parent="1">
                    <mxGeometry x="1236.92" y="575" width="60" height="10" as="geometry"/>
                </mxCell>
                <mxCell id="202" style="edgeStyle=orthogonalEdgeStyle;html=1;entryX=1;entryY=0.5;entryDx=0;entryDy=0;strokeColor=#424242;fontFamily=Tahoma;fontSize=9;fontColor=#424242;endArrow=none;endFill=0;exitX=0.009;exitY=0.375;exitDx=0;exitDy=0;exitPerimeter=0;" edge="1" parent="1" source="267" target="2">
                    <mxGeometry relative="1" as="geometry">
                        <Array as="points">
                            <mxPoint x="1226.92" y="640"/>
                            <mxPoint x="1216.92" y="640"/>
                            <mxPoint x="1216.92" y="620"/>
                        </Array>
                    </mxGeometry>
                </mxCell>
                <mxCell id="203" value="" style="ellipse;whiteSpace=wrap;html=1;aspect=fixed;strokeColor=#424242;fontFamily=Tahoma;fontSize=8;fontColor=#424242;fillColor=#FFFFFF;spacing=2;fillStyle=auto;" vertex="1" parent="1">
                    <mxGeometry x="1226.92" y="595" width="10" height="10" as="geometry"/>
                </mxCell>
                <mxCell id="204" style="edgeStyle=orthogonalEdgeStyle;html=1;entryX=1;entryY=0.5;entryDx=0;entryDy=0;strokeColor=#424242;fontFamily=Tahoma;fontSize=9;fontColor=#424242;endArrow=none;endFill=0;exitX=0;exitY=0.5;exitDx=0;exitDy=0;" edge="1" parent="1" source="269" target="2">
                    <mxGeometry relative="1" as="geometry">
                        <Array as="points">
                            <mxPoint x="1206.92" y="660"/>
                            <mxPoint x="1206.92" y="620"/>
                        </Array>
                    </mxGeometry>
                </mxCell>
                <mxCell id="205" value="" style="ellipse;whiteSpace=wrap;html=1;aspect=fixed;strokeColor=#424242;fontFamily=Tahoma;fontSize=8;fontColor=#424242;fillColor=#FFFFFF;spacing=2;fillStyle=auto;" vertex="1" parent="1">
                    <mxGeometry x="1226.92" y="615" width="10" height="10" as="geometry"/>
                </mxCell>
                <mxCell id="206" value="Rua" style="text;html=1;strokeColor=none;fillColor=none;align=left;verticalAlign=middle;whiteSpace=wrap;rounded=0;fontFamily=Tahoma;fontColor=#424242;fontSize=9;" vertex="1" parent="1">
                    <mxGeometry x="1236.92" y="595" width="60" height="10" as="geometry"/>
                </mxCell>
                <mxCell id="207" value="Numero" style="text;html=1;strokeColor=none;fillColor=none;align=left;verticalAlign=middle;whiteSpace=wrap;rounded=0;fontFamily=Tahoma;fontColor=#424242;fontSize=9;" vertex="1" parent="1">
                    <mxGeometry x="1236.92" y="615" width="60" height="10" as="geometry"/>
                </mxCell>
                <mxCell id="345" style="edgeStyle=none;html=1;exitX=0.5;exitY=0;exitDx=0;exitDy=0;entryX=0.5;entryY=1;entryDx=0;entryDy=0;strokeColor=#424242;endArrow=none;endFill=0;" edge="1" parent="1" source="209" target="217">
                    <mxGeometry relative="1" as="geometry"/>
                </mxCell>
                <mxCell id="209" value="" style="rounded=0;whiteSpace=wrap;html=1;fillColor=#FFFFFF;strokeColor=#424242;" vertex="1" parent="1">
                    <mxGeometry x="548.92" y="1341" width="80" height="40" as="geometry"/>
                </mxCell>
                <mxCell id="212" value="&lt;span style=&quot;&quot;&gt;(1,1)&lt;/span&gt;" style="text;html=1;strokeColor=none;fillColor=none;align=center;verticalAlign=middle;whiteSpace=wrap;rounded=0;fontFamily=Tahoma;fontColor=#424242;fontSize=9;" vertex="1" parent="1">
                    <mxGeometry x="588.92" y="1320" width="40.33" height="21" as="geometry"/>
                </mxCell>
                <mxCell id="213" value="" style="rounded=0;whiteSpace=wrap;html=1;fillColor=#FFFFFF;strokeColor=#424242;" vertex="1" parent="1">
                    <mxGeometry x="553.67" y="1346" width="70.5" height="30" as="geometry"/>
                </mxCell>
                <mxCell id="214" value="&lt;font style=&quot;font-size: 8px;&quot;&gt;Endereco_Aluno&lt;/font&gt;" style="text;html=1;strokeColor=none;fillColor=none;align=center;verticalAlign=middle;whiteSpace=wrap;rounded=0;fontFamily=Tahoma;fontColor=#424242;fontSize=11;" vertex="1" parent="1">
                    <mxGeometry x="558.92" y="1353.5" width="60" height="15" as="geometry"/>
                </mxCell>
                <mxCell id="217" value="" style="rhombus;whiteSpace=wrap;html=1;strokeColor=#424242;fontFamily=Tahoma;fontColor=#424242;fillColor=#FFFFFF;" vertex="1" parent="1">
                    <mxGeometry x="548.92" y="1240" width="80" height="40" as="geometry"/>
                </mxCell>
                <mxCell id="218" value="Possui" style="text;html=1;strokeColor=none;fillColor=none;align=center;verticalAlign=middle;whiteSpace=wrap;rounded=0;fontFamily=Tahoma;fontColor=#424242;fontSize=10;" vertex="1" parent="1">
                    <mxGeometry x="558.92" y="1245" width="60" height="30" as="geometry"/>
                </mxCell>
                <mxCell id="220" value="" style="ellipse;whiteSpace=wrap;html=1;aspect=fixed;strokeColor=#424242;fontFamily=Tahoma;fontSize=8;fontColor=#424242;fillColor=#FFFFFF;spacing=2;fillStyle=auto;" vertex="1" parent="1">
                    <mxGeometry x="488.91999999999996" y="1185" width="10" height="10" as="geometry"/>
                </mxCell>
                <mxCell id="221" value="Email" style="text;html=1;strokeColor=none;fillColor=none;align=right;verticalAlign=middle;whiteSpace=wrap;rounded=0;fontFamily=Tahoma;fontColor=#424242;fontSize=9;" vertex="1" parent="1">
                    <mxGeometry x="428.91999999999996" y="1185" width="60" height="10" as="geometry"/>
                </mxCell>
                <mxCell id="222" value="ID_Endereco_Aluno" style="text;html=1;strokeColor=none;fillColor=none;align=right;verticalAlign=middle;whiteSpace=wrap;rounded=0;fontFamily=Tahoma;fontColor=#424242;fontSize=9;" vertex="1" parent="1">
                    <mxGeometry x="429.41999999999996" y="1296" width="60" height="10" as="geometry"/>
                </mxCell>
                <mxCell id="223" style="edgeStyle=orthogonalEdgeStyle;html=1;entryX=0;entryY=0.5;entryDx=0;entryDy=0;strokeColor=#424242;fontFamily=Tahoma;fontSize=9;fontColor=#424242;endArrow=none;endFill=0;exitX=1;exitY=0.5;exitDx=0;exitDy=0;" edge="1" parent="1" source="226">
                    <mxGeometry relative="1" as="geometry">
                        <Array as="points">
                            <mxPoint x="529.92" y="1321"/>
                            <mxPoint x="529.92" y="1361"/>
                        </Array>
                        <mxPoint x="548.42" y="1361" as="targetPoint"/>
                    </mxGeometry>
                </mxCell>
                <mxCell id="324" style="edgeStyle=none;html=1;exitX=1;exitY=0.5;exitDx=0;exitDy=0;entryX=0;entryY=0.5;entryDx=0;entryDy=0;strokeColor=#424242;endArrow=none;endFill=0;" edge="1" parent="1" source="224" target="209">
                    <mxGeometry relative="1" as="geometry">
                        <Array as="points">
                            <mxPoint x="539.92" y="1301"/>
                            <mxPoint x="539.92" y="1361"/>
                        </Array>
                    </mxGeometry>
                </mxCell>
                <mxCell id="224" value="" style="ellipse;whiteSpace=wrap;html=1;aspect=fixed;strokeColor=#424242;fontFamily=Tahoma;fontSize=8;fontColor=#424242;fillColor=#424242;spacing=2;fillStyle=auto;" vertex="1" parent="1">
                    <mxGeometry x="489.41999999999996" y="1296" width="10" height="10" as="geometry"/>
                </mxCell>
                <mxCell id="225" style="edgeStyle=orthogonalEdgeStyle;html=1;exitX=1;exitY=0.5;exitDx=0;exitDy=0;strokeColor=#424242;fontFamily=Tahoma;fontSize=9;fontColor=#424242;endArrow=none;endFill=0;" edge="1" parent="1" source="232">
                    <mxGeometry relative="1" as="geometry">
                        <mxPoint x="548.42" y="1361" as="targetPoint"/>
                        <Array as="points">
                            <mxPoint x="519.92" y="1361"/>
                            <mxPoint x="519.92" y="1361"/>
                        </Array>
                    </mxGeometry>
                </mxCell>
                <mxCell id="226" value="" style="ellipse;whiteSpace=wrap;html=1;aspect=fixed;strokeColor=#424242;fontFamily=Tahoma;fontSize=8;fontColor=#424242;fillColor=#FFFFFF;spacing=2;fillStyle=auto;" vertex="1" parent="1">
                    <mxGeometry x="489.41999999999996" y="1316" width="10" height="10" as="geometry"/>
                </mxCell>
                <mxCell id="227" value="CEP" style="text;html=1;strokeColor=none;fillColor=none;align=right;verticalAlign=middle;whiteSpace=wrap;rounded=0;fontFamily=Tahoma;fontColor=#424242;fontSize=9;" vertex="1" parent="1">
                    <mxGeometry x="429.41999999999996" y="1316" width="60" height="10" as="geometry"/>
                </mxCell>
                <mxCell id="228" style="edgeStyle=orthogonalEdgeStyle;html=1;entryX=0;entryY=0.5;entryDx=0;entryDy=0;strokeColor=#424242;fontFamily=Tahoma;fontSize=9;fontColor=#424242;endArrow=none;endFill=0;" edge="1" parent="1" source="229">
                    <mxGeometry relative="1" as="geometry">
                        <mxPoint x="548.42" y="1361" as="targetPoint"/>
                        <Array as="points">
                            <mxPoint x="519.92" y="1341"/>
                            <mxPoint x="519.92" y="1361"/>
                        </Array>
                    </mxGeometry>
                </mxCell>
                <mxCell id="229" value="" style="ellipse;whiteSpace=wrap;html=1;aspect=fixed;strokeColor=#424242;fontFamily=Tahoma;fontSize=8;fontColor=#424242;fillColor=#FFFFFF;spacing=2;fillStyle=auto;" vertex="1" parent="1">
                    <mxGeometry x="489.41999999999996" y="1336" width="10" height="10" as="geometry"/>
                </mxCell>
                <mxCell id="230" value="Rua" style="text;html=1;strokeColor=none;fillColor=none;align=right;verticalAlign=middle;whiteSpace=wrap;rounded=0;fontFamily=Tahoma;fontColor=#424242;fontSize=9;" vertex="1" parent="1">
                    <mxGeometry x="429.41999999999996" y="1336" width="60" height="10" as="geometry"/>
                </mxCell>
                <mxCell id="231" style="edgeStyle=orthogonalEdgeStyle;html=1;entryX=0;entryY=0.5;entryDx=0;entryDy=0;strokeColor=#424242;fontFamily=Tahoma;fontSize=9;fontColor=#424242;endArrow=none;endFill=0;exitX=1;exitY=0.5;exitDx=0;exitDy=0;" edge="1" parent="1" source="235">
                    <mxGeometry relative="1" as="geometry">
                        <mxPoint x="548.42" y="1361" as="targetPoint"/>
                        <Array as="points">
                            <mxPoint x="519.92" y="1381"/>
                            <mxPoint x="519.92" y="1361"/>
                        </Array>
                        <mxPoint x="509.91999999999996" y="1381" as="sourcePoint"/>
                    </mxGeometry>
                </mxCell>
                <mxCell id="232" value="" style="ellipse;whiteSpace=wrap;html=1;aspect=fixed;strokeColor=#424242;fontFamily=Tahoma;fontSize=8;fontColor=#424242;fillColor=#FFFFFF;spacing=2;fillStyle=auto;" vertex="1" parent="1">
                    <mxGeometry x="488.41999999999996" y="1356" width="10" height="10" as="geometry"/>
                </mxCell>
                <mxCell id="233" style="edgeStyle=orthogonalEdgeStyle;html=1;entryX=0;entryY=0.5;entryDx=0;entryDy=0;strokeColor=#424242;fontFamily=Tahoma;fontSize=9;fontColor=#424242;endArrow=none;endFill=0;exitX=1;exitY=0.5;exitDx=0;exitDy=0;" edge="1" parent="1" source="310">
                    <mxGeometry relative="1" as="geometry">
                        <Array as="points">
                            <mxPoint x="529.92" y="1401"/>
                            <mxPoint x="529.92" y="1361"/>
                        </Array>
                        <mxPoint x="509.41999999999996" y="1401" as="sourcePoint"/>
                        <mxPoint x="548.42" y="1361" as="targetPoint"/>
                    </mxGeometry>
                </mxCell>
                <mxCell id="234" value="&lt;span style=&quot;text-align: left;&quot;&gt;Numero&lt;/span&gt;" style="text;html=1;strokeColor=none;fillColor=none;align=right;verticalAlign=middle;whiteSpace=wrap;rounded=0;fontFamily=Tahoma;fontColor=#424242;fontSize=9;" vertex="1" parent="1">
                    <mxGeometry x="428.41999999999996" y="1356" width="60" height="10" as="geometry"/>
                </mxCell>
                <mxCell id="235" value="" style="ellipse;whiteSpace=wrap;html=1;aspect=fixed;strokeColor=#424242;fontFamily=Tahoma;fontSize=8;fontColor=#424242;fillColor=#FFFFFF;spacing=2;fillStyle=auto;" vertex="1" parent="1">
                    <mxGeometry x="489.41999999999996" y="1376" width="10" height="10" as="geometry"/>
                </mxCell>
                <mxCell id="236" value="&lt;span style=&quot;text-align: left;&quot;&gt;Complemento&lt;/span&gt;" style="text;html=1;strokeColor=none;fillColor=none;align=right;verticalAlign=middle;whiteSpace=wrap;rounded=0;fontFamily=Tahoma;fontColor=#424242;fontSize=9;" vertex="1" parent="1">
                    <mxGeometry x="429.41999999999996" y="1376" width="60" height="10" as="geometry"/>
                </mxCell>
                <mxCell id="238" style="edgeStyle=none;html=1;entryX=0;entryY=0.5;entryDx=0;entryDy=0;strokeColor=#424242;fontFamily=Tahoma;fontSize=10;fontColor=#424242;endArrow=none;endFill=0;" edge="1" parent="1" source="239" target="6">
                    <mxGeometry relative="1" as="geometry"/>
                </mxCell>
                <mxCell id="239" value="" style="rhombus;whiteSpace=wrap;html=1;strokeColor=#424242;fontFamily=Tahoma;fontColor=#424242;fillColor=#FFFFFF;" vertex="1" parent="1">
                    <mxGeometry x="745.92" y="410" width="80" height="40" as="geometry"/>
                </mxCell>
                <mxCell id="240" value="Escreve" style="text;html=1;strokeColor=none;fillColor=none;align=center;verticalAlign=middle;whiteSpace=wrap;rounded=0;fontFamily=Tahoma;fontColor=#424242;fontSize=10;" vertex="1" parent="1">
                    <mxGeometry x="755.92" y="415" width="60" height="30" as="geometry"/>
                </mxCell>
                <mxCell id="243" style="edgeStyle=orthogonalEdgeStyle;html=1;strokeColor=#424242;fontFamily=Tahoma;fontSize=9;fontColor=#424242;endArrow=none;endFill=0;" edge="1" parent="1" source="244">
                    <mxGeometry relative="1" as="geometry">
                        <mxPoint x="945.92" y="430" as="targetPoint"/>
                        <Array as="points">
                            <mxPoint x="955.92" y="390"/>
                            <mxPoint x="955.92" y="430"/>
                            <mxPoint x="945.92" y="430"/>
                        </Array>
                    </mxGeometry>
                </mxCell>
                <mxCell id="244" value="" style="ellipse;whiteSpace=wrap;html=1;aspect=fixed;strokeColor=#424242;fontFamily=Tahoma;fontSize=8;fontColor=#424242;fillColor=#424242;spacing=2;fillStyle=auto;" vertex="1" parent="1">
                    <mxGeometry x="985.92" y="385" width="10" height="10" as="geometry"/>
                </mxCell>
                <mxCell id="245" value="&lt;div style=&quot;text-align: right;&quot;&gt;&lt;span style=&quot;background-color: initial;&quot;&gt;ID_Autor&lt;/span&gt;&lt;/div&gt;" style="text;html=1;strokeColor=none;fillColor=none;align=left;verticalAlign=middle;whiteSpace=wrap;rounded=0;fontFamily=Tahoma;fontColor=#424242;fontSize=9;" vertex="1" parent="1">
                    <mxGeometry x="995.92" y="385" width="60" height="10" as="geometry"/>
                </mxCell>
                <mxCell id="246" style="edgeStyle=orthogonalEdgeStyle;html=1;strokeColor=#424242;fontFamily=Tahoma;fontSize=9;fontColor=#424242;endArrow=none;endFill=0;" edge="1" parent="1" source="247">
                    <mxGeometry relative="1" as="geometry">
                        <mxPoint x="945.92" y="430" as="targetPoint"/>
                        <Array as="points">
                            <mxPoint x="965.92" y="410"/>
                            <mxPoint x="965.92" y="430"/>
                        </Array>
                    </mxGeometry>
                </mxCell>
                <mxCell id="247" value="" style="ellipse;whiteSpace=wrap;html=1;aspect=fixed;strokeColor=#424242;fontFamily=Tahoma;fontSize=8;fontColor=#424242;fillColor=#FFFFFF;spacing=2;fillStyle=auto;" vertex="1" parent="1">
                    <mxGeometry x="985.92" y="405" width="10" height="10" as="geometry"/>
                </mxCell>
                <mxCell id="248" value="&lt;div style=&quot;text-align: right;&quot;&gt;&lt;span style=&quot;background-color: initial;&quot;&gt;Nome&lt;/span&gt;&lt;/div&gt;" style="text;html=1;strokeColor=none;fillColor=none;align=left;verticalAlign=middle;whiteSpace=wrap;rounded=0;fontFamily=Tahoma;fontColor=#424242;fontSize=9;" vertex="1" parent="1">
                    <mxGeometry x="995.92" y="405" width="60" height="10" as="geometry"/>
                </mxCell>
                <mxCell id="249" style="edgeStyle=orthogonalEdgeStyle;html=1;entryX=1;entryY=0.5;entryDx=0;entryDy=0;strokeColor=#424242;fontFamily=Tahoma;fontSize=9;fontColor=#424242;endArrow=none;endFill=0;" edge="1" parent="1" source="250" target="6">
                    <mxGeometry relative="1" as="geometry">
                        <Array as="points">
                            <mxPoint x="955.92" y="430"/>
                            <mxPoint x="955.92" y="430"/>
                        </Array>
                        <mxPoint x="945.9199999999997" y="420.0000000000001" as="targetPoint"/>
                    </mxGeometry>
                </mxCell>
                <mxCell id="250" value="" style="ellipse;whiteSpace=wrap;html=1;aspect=fixed;strokeColor=#424242;fontFamily=Tahoma;fontSize=8;fontColor=#424242;fillColor=#FFFFFF;spacing=2;fillStyle=auto;" vertex="1" parent="1">
                    <mxGeometry x="985.92" y="425" width="10" height="10" as="geometry"/>
                </mxCell>
                <mxCell id="251" style="edgeStyle=orthogonalEdgeStyle;html=1;strokeColor=#424242;fontFamily=Tahoma;fontSize=9;fontColor=#424242;endArrow=none;endFill=0;" edge="1" parent="1" source="252">
                    <mxGeometry relative="1" as="geometry">
                        <Array as="points">
                            <mxPoint x="965.92" y="450"/>
                            <mxPoint x="965.92" y="430"/>
                        </Array>
                        <mxPoint x="945.92" y="430" as="targetPoint"/>
                    </mxGeometry>
                </mxCell>
                <mxCell id="252" value="" style="ellipse;whiteSpace=wrap;html=1;aspect=fixed;strokeColor=#424242;fontFamily=Tahoma;fontSize=8;fontColor=#424242;fillColor=#FFFFFF;spacing=2;fillStyle=auto;" vertex="1" parent="1">
                    <mxGeometry x="985.92" y="445" width="10" height="10" as="geometry"/>
                </mxCell>
                <mxCell id="253" value="Biografia" style="text;html=1;strokeColor=none;fillColor=none;align=left;verticalAlign=middle;whiteSpace=wrap;rounded=0;fontFamily=Tahoma;fontColor=#424242;fontSize=9;" vertex="1" parent="1">
                    <mxGeometry x="995.92" y="425" width="60" height="10" as="geometry"/>
                </mxCell>
                <mxCell id="254" value="Nascionalidade" style="text;html=1;strokeColor=none;fillColor=none;align=left;verticalAlign=middle;whiteSpace=wrap;rounded=0;fontFamily=Tahoma;fontColor=#424242;fontSize=9;" vertex="1" parent="1">
                    <mxGeometry x="995.92" y="445" width="60" height="10" as="geometry"/>
                </mxCell>
                <mxCell id="255" value="" style="ellipse;whiteSpace=wrap;html=1;aspect=fixed;strokeColor=#424242;fontFamily=Tahoma;fontSize=8;fontColor=#424242;fillColor=#FFFFFF;spacing=2;fillStyle=auto;" vertex="1" parent="1">
                    <mxGeometry x="985.92" y="465" width="10" height="10" as="geometry"/>
                </mxCell>
                <mxCell id="256" value="Data_Nascimento" style="text;html=1;strokeColor=none;fillColor=none;align=left;verticalAlign=middle;whiteSpace=wrap;rounded=0;fontFamily=Tahoma;fontColor=#424242;fontSize=9;" vertex="1" parent="1">
                    <mxGeometry x="995.92" y="465" width="60" height="10" as="geometry"/>
                </mxCell>
                <mxCell id="257" style="edgeStyle=orthogonalEdgeStyle;html=1;entryX=1;entryY=0.5;entryDx=0;entryDy=0;strokeColor=#424242;fontFamily=Tahoma;fontSize=9;fontColor=#424242;endArrow=none;endFill=0;" edge="1" parent="1" source="255" target="6">
                    <mxGeometry relative="1" as="geometry">
                        <Array as="points">
                            <mxPoint x="955.92" y="470"/>
                            <mxPoint x="955.92" y="430"/>
                        </Array>
                        <mxPoint x="945.9199999999997" y="440.0000000000001" as="targetPoint"/>
                    </mxGeometry>
                </mxCell>
                <mxCell id="258" value="Autor" style="text;html=1;strokeColor=none;fillColor=none;align=center;verticalAlign=middle;whiteSpace=wrap;rounded=0;fontFamily=Tahoma;fontColor=#424242;" vertex="1" parent="1">
                    <mxGeometry x="875.92" y="422.5" width="60" height="15" as="geometry"/>
                </mxCell>
                <mxCell id="267" value="" style="ellipse;whiteSpace=wrap;html=1;aspect=fixed;strokeColor=#424242;fontFamily=Tahoma;fontSize=8;fontColor=#424242;fillColor=#FFFFFF;spacing=2;fillStyle=auto;" vertex="1" parent="1">
                    <mxGeometry x="1226.92" y="635" width="10" height="10" as="geometry"/>
                </mxCell>
                <mxCell id="268" value="&lt;span style=&quot;text-align: right;&quot;&gt;Complemento&lt;/span&gt;" style="text;html=1;strokeColor=none;fillColor=none;align=left;verticalAlign=middle;whiteSpace=wrap;rounded=0;fontFamily=Tahoma;fontColor=#424242;fontSize=9;" vertex="1" parent="1">
                    <mxGeometry x="1236.92" y="635" width="60" height="10" as="geometry"/>
                </mxCell>
                <mxCell id="269" value="" style="ellipse;whiteSpace=wrap;html=1;aspect=fixed;strokeColor=#424242;fontFamily=Tahoma;fontSize=8;fontColor=#424242;fillColor=#FFFFFF;spacing=2;fillStyle=auto;" vertex="1" parent="1">
                    <mxGeometry x="1226.92" y="655" width="10" height="10" as="geometry"/>
                </mxCell>
                <mxCell id="277" style="edgeStyle=none;html=1;exitX=0;exitY=0.5;exitDx=0;exitDy=0;strokeColor=#424242;endArrow=none;endFill=0;" edge="1" parent="1" source="270">
                    <mxGeometry relative="1" as="geometry">
                        <mxPoint x="1186.92" y="620" as="targetPoint"/>
                        <Array as="points">
                            <mxPoint x="1196.92" y="680"/>
                            <mxPoint x="1196.92" y="650"/>
                            <mxPoint x="1196.92" y="620"/>
                        </Array>
                    </mxGeometry>
                </mxCell>
                <mxCell id="270" value="" style="ellipse;whiteSpace=wrap;html=1;aspect=fixed;strokeColor=#424242;fontFamily=Tahoma;fontSize=8;fontColor=#424242;fillColor=#FFFFFF;spacing=2;fillStyle=auto;" vertex="1" parent="1">
                    <mxGeometry x="1226.92" y="675" width="10" height="10" as="geometry"/>
                </mxCell>
                <mxCell id="271" value="Bairro" style="text;html=1;strokeColor=none;fillColor=none;align=left;verticalAlign=middle;whiteSpace=wrap;rounded=0;fontFamily=Tahoma;fontColor=#424242;fontSize=9;" vertex="1" parent="1">
                    <mxGeometry x="1236.92" y="655" width="60" height="10" as="geometry"/>
                </mxCell>
                <mxCell id="272" value="Cidade" style="text;html=1;strokeColor=none;fillColor=none;align=left;verticalAlign=middle;whiteSpace=wrap;rounded=0;fontFamily=Tahoma;fontColor=#424242;fontSize=9;" vertex="1" parent="1">
                    <mxGeometry x="1236.92" y="675" width="60" height="10" as="geometry"/>
                </mxCell>
                <mxCell id="278" style="edgeStyle=orthogonalEdgeStyle;html=1;entryX=0.75;entryY=0;entryDx=0;entryDy=0;strokeColor=#424242;fontFamily=Tahoma;fontSize=9;fontColor=#424242;endArrow=none;endFill=0;exitX=0;exitY=0.5;exitDx=0;exitDy=0;" edge="1" parent="1">
                    <mxGeometry relative="1" as="geometry">
                        <mxPoint x="916.92" y="600" as="targetPoint"/>
                        <mxPoint x="926.9200000000088" y="585" as="sourcePoint"/>
                    </mxGeometry>
                </mxCell>
                <mxCell id="279" value="" style="ellipse;whiteSpace=wrap;html=1;aspect=fixed;strokeColor=#424242;fontFamily=Tahoma;fontSize=8;fontColor=#424242;fillColor=#FFFFFF;spacing=2;fillStyle=auto;" vertex="1" parent="1">
                    <mxGeometry x="926.92" y="580" width="10" height="10" as="geometry"/>
                </mxCell>
                <mxCell id="280" value="Email" style="text;html=1;strokeColor=none;fillColor=none;align=left;verticalAlign=middle;whiteSpace=wrap;rounded=0;fontFamily=Tahoma;fontColor=#424242;fontSize=9;" vertex="1" parent="1">
                    <mxGeometry x="936.92" y="580" width="60" height="10" as="geometry"/>
                </mxCell>
                <mxCell id="285" value="" style="ellipse;whiteSpace=wrap;html=1;aspect=fixed;strokeColor=#424242;fontFamily=Tahoma;fontSize=8;fontColor=#424242;fillColor=#FFFFFF;spacing=2;fillStyle=auto;" vertex="1" parent="1">
                    <mxGeometry x="713.9699999999999" y="747.88" width="10" height="10" as="geometry"/>
                </mxCell>
                <mxCell id="286" value="Quantidade" style="text;html=1;strokeColor=none;fillColor=none;align=left;verticalAlign=middle;whiteSpace=wrap;rounded=0;fontFamily=Tahoma;fontColor=#424242;fontSize=9;" vertex="1" parent="1">
                    <mxGeometry x="723.9699999999999" y="747.88" width="80" height="10" as="geometry"/>
                </mxCell>
                <mxCell id="287" style="edgeStyle=orthogonalEdgeStyle;html=1;entryX=1;entryY=0;entryDx=0;entryDy=0;strokeColor=#424242;fontFamily=Tahoma;fontSize=9;fontColor=#424242;endArrow=none;endFill=0;exitX=0;exitY=0.5;exitDx=0;exitDy=0;" edge="1" source="285" parent="1">
                    <mxGeometry relative="1" as="geometry">
                        <mxPoint x="703.9699999999999" y="769.88" as="targetPoint"/>
                    </mxGeometry>
                </mxCell>
                <mxCell id="326" style="edgeStyle=none;html=1;exitX=0;exitY=0.5;exitDx=0;exitDy=0;entryX=1;entryY=0.5;entryDx=0;entryDy=0;strokeColor=#424242;endArrow=none;endFill=0;" edge="1" parent="1" source="290" target="19">
                    <mxGeometry relative="1" as="geometry">
                        <Array as="points">
                            <mxPoint x="1000.92" y="1010"/>
                            <mxPoint x="1000.92" y="950"/>
                        </Array>
                    </mxGeometry>
                </mxCell>
                <mxCell id="290" value="" style="ellipse;whiteSpace=wrap;html=1;aspect=fixed;strokeColor=#424242;fontFamily=Tahoma;fontSize=8;fontColor=#424242;fillColor=#FFFFFF;spacing=2;fillStyle=auto;" vertex="1" parent="1">
                    <mxGeometry x="1040.92" y="1005" width="10" height="10" as="geometry"/>
                </mxCell>
                <mxCell id="291" value="Data_Reserva" style="text;html=1;strokeColor=none;fillColor=none;align=left;verticalAlign=middle;whiteSpace=wrap;rounded=0;fontFamily=Tahoma;fontColor=#424242;fontSize=9;" vertex="1" parent="1">
                    <mxGeometry x="1050.92" y="1005" width="60" height="10" as="geometry"/>
                </mxCell>
                <mxCell id="292" value="" style="ellipse;whiteSpace=wrap;html=1;aspect=fixed;strokeColor=#424242;fontFamily=Tahoma;fontSize=8;fontColor=#424242;fillColor=#FFFFFF;spacing=2;fillStyle=auto;" vertex="1" parent="1">
                    <mxGeometry x="1040.92" y="985" width="10" height="10" as="geometry"/>
                </mxCell>
                <mxCell id="293" value="&lt;span style=&quot;text-align: right;&quot;&gt;Status_Reserva&lt;/span&gt;" style="text;html=1;strokeColor=none;fillColor=none;align=left;verticalAlign=middle;whiteSpace=wrap;rounded=0;fontFamily=Tahoma;fontColor=#424242;fontSize=9;" vertex="1" parent="1">
                    <mxGeometry x="1050.92" y="985" width="60" height="10" as="geometry"/>
                </mxCell>
                <mxCell id="294" value="" style="ellipse;whiteSpace=wrap;html=1;aspect=fixed;strokeColor=#424242;fontFamily=Tahoma;fontSize=8;fontColor=#424242;fillColor=#FFFFFF;spacing=2;fillStyle=auto;" vertex="1" parent="1">
                    <mxGeometry x="1040.92" y="965" width="10" height="10" as="geometry"/>
                </mxCell>
                <mxCell id="295" value="Data_Prevista_Disponibilidade" style="text;html=1;strokeColor=none;fillColor=none;align=left;verticalAlign=middle;whiteSpace=wrap;rounded=0;fontFamily=Tahoma;fontColor=#424242;fontSize=9;" vertex="1" parent="1">
                    <mxGeometry x="1050.92" y="965" width="60" height="10" as="geometry"/>
                </mxCell>
                <mxCell id="310" value="" style="ellipse;whiteSpace=wrap;html=1;aspect=fixed;strokeColor=#424242;fontFamily=Tahoma;fontSize=8;fontColor=#424242;fillColor=#FFFFFF;spacing=2;fillStyle=auto;" vertex="1" parent="1">
                    <mxGeometry x="489.41999999999996" y="1396" width="10" height="10" as="geometry"/>
                </mxCell>
                <mxCell id="311" value="&lt;span style=&quot;text-align: left;&quot;&gt;Bairro&lt;/span&gt;" style="text;html=1;strokeColor=none;fillColor=none;align=right;verticalAlign=middle;whiteSpace=wrap;rounded=0;fontFamily=Tahoma;fontColor=#424242;fontSize=9;" vertex="1" parent="1">
                    <mxGeometry x="429.41999999999996" y="1396" width="60" height="10" as="geometry"/>
                </mxCell>
                <mxCell id="323" style="edgeStyle=none;html=1;exitX=1;exitY=0.5;exitDx=0;exitDy=0;entryX=0;entryY=0.5;entryDx=0;entryDy=0;strokeColor=#424242;endArrow=none;endFill=0;" edge="1" parent="1" source="312" target="209">
                    <mxGeometry relative="1" as="geometry">
                        <Array as="points">
                            <mxPoint x="539.92" y="1421"/>
                            <mxPoint x="539.92" y="1361"/>
                        </Array>
                    </mxGeometry>
                </mxCell>
                <mxCell id="312" value="" style="ellipse;whiteSpace=wrap;html=1;aspect=fixed;strokeColor=#424242;fontFamily=Tahoma;fontSize=8;fontColor=#424242;fillColor=#FFFFFF;spacing=2;fillStyle=auto;" vertex="1" parent="1">
                    <mxGeometry x="489.41999999999996" y="1416" width="10" height="10" as="geometry"/>
                </mxCell>
                <mxCell id="313" value="&lt;span style=&quot;text-align: left;&quot;&gt;Cidade&lt;/span&gt;" style="text;html=1;strokeColor=none;fillColor=none;align=right;verticalAlign=middle;whiteSpace=wrap;rounded=0;fontFamily=Tahoma;fontColor=#424242;fontSize=9;" vertex="1" parent="1">
                    <mxGeometry x="429.41999999999996" y="1416" width="60" height="10" as="geometry"/>
                </mxCell>
                <mxCell id="314" value="RA_Aluno" style="text;html=1;strokeColor=none;fillColor=none;align=right;verticalAlign=middle;whiteSpace=wrap;rounded=0;fontFamily=Tahoma;fontColor=#424242;fontSize=9;" vertex="1" parent="1">
                    <mxGeometry x="428.91999999999996" y="1085" width="60" height="10" as="geometry"/>
                </mxCell>
                <mxCell id="321" style="edgeStyle=none;html=1;exitX=1;exitY=0.5;exitDx=0;exitDy=0;strokeColor=#424242;endArrow=none;endFill=0;entryX=0;entryY=0.5;entryDx=0;entryDy=0;" edge="1" parent="1" source="315" target="11">
                    <mxGeometry relative="1" as="geometry">
                        <mxPoint x="539.92" y="1140" as="targetPoint"/>
                        <Array as="points">
                            <mxPoint x="539.92" y="1090"/>
                            <mxPoint x="539.92" y="1150"/>
                        </Array>
                    </mxGeometry>
                </mxCell>
                <mxCell id="315" value="" style="ellipse;whiteSpace=wrap;html=1;aspect=fixed;strokeColor=#424242;fontFamily=Tahoma;fontSize=8;fontColor=#424242;fillColor=#424242;spacing=2;fillStyle=auto;" vertex="1" parent="1">
                    <mxGeometry x="488.91999999999996" y="1085" width="10" height="10" as="geometry"/>
                </mxCell>
                <mxCell id="316" value="" style="ellipse;whiteSpace=wrap;html=1;aspect=fixed;strokeColor=#424242;fontFamily=Tahoma;fontSize=8;fontColor=#424242;fillColor=#FFFFFF;spacing=2;fillStyle=auto;" vertex="1" parent="1">
                    <mxGeometry x="488.91999999999996" y="1105" width="10" height="10" as="geometry"/>
                </mxCell>
                <mxCell id="317" value="Data_Cadastro" style="text;html=1;strokeColor=none;fillColor=none;align=right;verticalAlign=middle;whiteSpace=wrap;rounded=0;fontFamily=Tahoma;fontColor=#424242;fontSize=9;" vertex="1" parent="1">
                    <mxGeometry x="428.91999999999996" y="1205" width="60" height="10" as="geometry"/>
                </mxCell>
                <mxCell id="320" value="" style="edgeStyle=none;html=1;strokeColor=#424242;endArrow=none;endFill=0;" edge="1" parent="1" source="318" target="317">
                    <mxGeometry relative="1" as="geometry"/>
                </mxCell>
                <mxCell id="322" style="edgeStyle=none;html=1;exitX=1;exitY=0.5;exitDx=0;exitDy=0;entryX=0;entryY=0.5;entryDx=0;entryDy=0;strokeColor=#424242;endArrow=none;endFill=0;" edge="1" parent="1" source="318" target="11">
                    <mxGeometry relative="1" as="geometry">
                        <Array as="points">
                            <mxPoint x="539.92" y="1210"/>
                            <mxPoint x="539.92" y="1150"/>
                        </Array>
                    </mxGeometry>
                </mxCell>
                <mxCell id="318" value="" style="ellipse;whiteSpace=wrap;html=1;aspect=fixed;strokeColor=#424242;fontFamily=Tahoma;fontSize=8;fontColor=#424242;fillColor=#FFFFFF;spacing=2;fillStyle=auto;" vertex="1" parent="1">
                    <mxGeometry x="488.91999999999996" y="1205" width="10" height="10" as="geometry"/>
                </mxCell>
                <mxCell id="340" style="edgeStyle=none;html=1;exitX=0.5;exitY=1;exitDx=0;exitDy=0;entryX=0.5;entryY=0;entryDx=0;entryDy=0;strokeColor=#424242;endArrow=none;endFill=0;" edge="1" parent="1" source="336" target="19">
                    <mxGeometry relative="1" as="geometry"/>
                </mxCell>
                <mxCell id="336" value="" style="rhombus;whiteSpace=wrap;html=1;strokeColor=#424242;fontFamily=Tahoma;fontColor=#424242;fillColor=#FFFFFF;" vertex="1" parent="1">
                    <mxGeometry x="909.92" y="771" width="80" height="40" as="geometry"/>
                </mxCell>
                <mxCell id="337" value="Reservado" style="text;html=1;strokeColor=none;fillColor=none;align=center;verticalAlign=middle;whiteSpace=wrap;rounded=0;fontFamily=Tahoma;fontColor=#424242;fontSize=10;" vertex="1" parent="1">
                    <mxGeometry x="919.92" y="776" width="60" height="30" as="geometry"/>
                </mxCell>
                <mxCell id="43" value="Publica" style="text;html=1;strokeColor=none;fillColor=none;align=center;verticalAlign=middle;whiteSpace=wrap;rounded=0;fontFamily=Tahoma;fontColor=#424242;fontSize=10;" vertex="1" parent="1">
                    <mxGeometry x="755.92" y="605" width="60" height="30" as="geometry"/>
                </mxCell>
                <mxCell id="356" style="edgeStyle=none;html=1;exitX=0;exitY=0.5;exitDx=0;exitDy=0;entryX=1;entryY=0.5;entryDx=0;entryDy=0;strokeColor=#424242;endArrow=none;endFill=0;" edge="1" parent="1" source="349" target="9">
                    <mxGeometry relative="1" as="geometry"/>
                </mxCell>
                <mxCell id="349" value="" style="rhombus;whiteSpace=wrap;html=1;strokeColor=#424242;fontFamily=Tahoma;fontColor=#424242;fillColor=#FFFFFF;" vertex="1" parent="1">
                    <mxGeometry x="459.41999999999996" y="832.88" width="80" height="40" as="geometry"/>
                </mxCell>
                <mxCell id="350" value="Pertence" style="text;html=1;strokeColor=none;fillColor=none;align=center;verticalAlign=middle;whiteSpace=wrap;rounded=0;fontFamily=Tahoma;fontColor=#424242;fontSize=10;" vertex="1" parent="1">
                    <mxGeometry x="469.41999999999996" y="837.88" width="60" height="30" as="geometry"/>
                </mxCell>
                <mxCell id="353" style="edgeStyle=none;html=1;exitX=0.5;exitY=0;exitDx=0;exitDy=0;entryX=0;entryY=0.5;entryDx=0;entryDy=0;strokeColor=#424242;endArrow=none;endFill=0;" edge="1" parent="1" source="352" target="24">
                    <mxGeometry relative="1" as="geometry">
                        <Array as="points">
                            <mxPoint x="499" y="430"/>
                        </Array>
                    </mxGeometry>
                </mxCell>
                <mxCell id="351" value="" style="rhombus;whiteSpace=wrap;html=1;strokeColor=#424242;fontFamily=Tahoma;fontColor=#424242;fillColor=#FFFFFF;" vertex="1" parent="1">
                    <mxGeometry x="459.41999999999996" y="600" width="80" height="40" as="geometry"/>
                </mxCell>
                <mxCell id="352" value="Tem" style="text;html=1;strokeColor=none;fillColor=none;align=center;verticalAlign=middle;whiteSpace=wrap;rounded=0;fontFamily=Tahoma;fontColor=#424242;fontSize=10;" vertex="1" parent="1">
                    <mxGeometry x="469.41999999999996" y="605" width="60" height="30" as="geometry"/>
                </mxCell>
                <mxCell id="357" value="&lt;span style=&quot;&quot;&gt;(1,n)&lt;/span&gt;" style="text;html=1;strokeColor=none;fillColor=none;align=center;verticalAlign=middle;whiteSpace=wrap;rounded=0;fontFamily=Tahoma;fontColor=#424242;fontSize=9;" vertex="1" parent="1">
                    <mxGeometry x="588.5899999999999" y="1170" width="40.33" height="21" as="geometry"/>
                </mxCell>
                <mxCell id="359" value="&lt;span style=&quot;&quot;&gt;(1,n)&lt;/span&gt;" style="text;html=1;strokeColor=none;fillColor=none;align=center;verticalAlign=middle;whiteSpace=wrap;rounded=0;fontFamily=Tahoma;fontColor=#424242;fontSize=9;" vertex="1" parent="1">
                    <mxGeometry x="945.92" y="600" width="40.33" height="21" as="geometry"/>
                </mxCell>
                <mxCell id="360" value="&lt;span style=&quot;&quot;&gt;(1,1)&lt;/span&gt;" style="text;html=1;strokeColor=none;fillColor=none;align=center;verticalAlign=middle;whiteSpace=wrap;rounded=0;fontFamily=Tahoma;fontColor=#424242;fontSize=9;" vertex="1" parent="1">
                    <mxGeometry x="1066.59" y="600" width="40.33" height="21" as="geometry"/>
                </mxCell>
                <mxCell id="361" value="&lt;span style=&quot;&quot;&gt;(1,1)&lt;/span&gt;" style="text;html=1;strokeColor=none;fillColor=none;align=center;verticalAlign=middle;whiteSpace=wrap;rounded=0;fontFamily=Tahoma;fontColor=#424242;fontSize=9;" vertex="1" parent="1">
                    <mxGeometry x="825.5899999999999" y="600" width="40.33" height="21" as="geometry"/>
                </mxCell>
                <mxCell id="362" value="&lt;span style=&quot;&quot;&gt;(1,n)&lt;/span&gt;" style="text;html=1;strokeColor=none;fillColor=none;align=center;verticalAlign=middle;whiteSpace=wrap;rounded=0;fontFamily=Tahoma;fontColor=#424242;fontSize=9;" vertex="1" parent="1">
                    <mxGeometry x="663.8399999999999" y="664" width="40.33" height="21" as="geometry"/>
                </mxCell>
                <mxCell id="363" value="&lt;span style=&quot;&quot;&gt;(1,n)&lt;/span&gt;" style="text;html=1;strokeColor=none;fillColor=none;align=center;verticalAlign=middle;whiteSpace=wrap;rounded=0;fontFamily=Tahoma;fontColor=#424242;fontSize=9;" vertex="1" parent="1">
                    <mxGeometry x="588.59" y="770" width="40.33" height="21" as="geometry"/>
                </mxCell>
                <mxCell id="364" value="&lt;span style=&quot;&quot;&gt;(1,n)&lt;/span&gt;" style="text;html=1;strokeColor=none;fillColor=none;align=center;verticalAlign=middle;whiteSpace=wrap;rounded=0;fontFamily=Tahoma;fontColor=#424242;fontSize=9;" vertex="1" parent="1">
                    <mxGeometry x="588.59" y="801.88" width="40.33" height="21" as="geometry"/>
                </mxCell>
                <mxCell id="365" value="&lt;span style=&quot;&quot;&gt;(1,n)&lt;/span&gt;" style="text;html=1;strokeColor=none;fillColor=none;align=center;verticalAlign=middle;whiteSpace=wrap;rounded=0;fontFamily=Tahoma;fontColor=#424242;fontSize=9;" vertex="1" parent="1">
                    <mxGeometry x="583.84" y="429" width="40.33" height="21" as="geometry"/>
                </mxCell>
                <mxCell id="366" value="&lt;span style=&quot;&quot;&gt;(1,n)&lt;/span&gt;" style="text;html=1;strokeColor=none;fillColor=none;align=center;verticalAlign=middle;whiteSpace=wrap;rounded=0;fontFamily=Tahoma;fontColor=#424242;fontSize=9;" vertex="1" parent="1">
                    <mxGeometry x="704.1700000000001" y="429" width="40.33" height="21" as="geometry"/>
                </mxCell>
                <mxCell id="367" value="&lt;span style=&quot;&quot;&gt;(1,n)&lt;/span&gt;" style="text;html=1;strokeColor=none;fillColor=none;align=center;verticalAlign=middle;whiteSpace=wrap;rounded=0;fontFamily=Tahoma;fontColor=#424242;fontSize=9;" vertex="1" parent="1">
                    <mxGeometry x="825.59" y="429" width="40.33" height="21" as="geometry"/>
                </mxCell>
                <mxCell id="368" value="&lt;span style=&quot;&quot;&gt;(1,1)&lt;/span&gt;" style="text;html=1;strokeColor=none;fillColor=none;align=center;verticalAlign=middle;whiteSpace=wrap;rounded=0;fontFamily=Tahoma;fontColor=#424242;fontSize=9;" vertex="1" parent="1">
                    <mxGeometry x="384" y="855" width="40.33" height="21" as="geometry"/>
                </mxCell>
                <mxCell id="369" value="&lt;span style=&quot;&quot;&gt;(1,n)&lt;/span&gt;" style="text;html=1;strokeColor=none;fillColor=none;align=center;verticalAlign=middle;whiteSpace=wrap;rounded=0;fontFamily=Tahoma;fontColor=#424242;fontSize=9;" vertex="1" parent="1">
                    <mxGeometry x="588.59" y="1109" width="40.33" height="21" as="geometry"/>
                </mxCell>
                <mxCell id="370" value="&lt;span style=&quot;&quot;&gt;(1,n)&lt;/span&gt;" style="text;html=1;strokeColor=none;fillColor=none;align=center;verticalAlign=middle;whiteSpace=wrap;rounded=0;fontFamily=Tahoma;fontColor=#424242;fontSize=9;" vertex="1" parent="1">
                    <mxGeometry x="668.59" y="970" width="40.33" height="21" as="geometry"/>
                </mxCell>
                <mxCell id="371" value="&lt;span style=&quot;&quot;&gt;(1,n)&lt;/span&gt;" style="text;html=1;strokeColor=none;fillColor=none;align=center;verticalAlign=middle;whiteSpace=wrap;rounded=0;fontFamily=Tahoma;fontColor=#424242;fontSize=9;" vertex="1" parent="1">
                    <mxGeometry x="668.59" y="909" width="40.33" height="21" as="geometry"/>
                </mxCell>
                <mxCell id="372" value="&lt;span style=&quot;&quot;&gt;(1,n)&lt;/span&gt;" style="text;html=1;strokeColor=none;fillColor=none;align=center;verticalAlign=middle;whiteSpace=wrap;rounded=0;fontFamily=Tahoma;fontColor=#424242;fontSize=9;" vertex="1" parent="1">
                    <mxGeometry x="668.59" y="810" width="40.33" height="21" as="geometry"/>
                </mxCell>
                <mxCell id="373" value="&lt;span style=&quot;&quot;&gt;(1,n)&lt;/span&gt;" style="text;html=1;strokeColor=none;fillColor=none;align=center;verticalAlign=middle;whiteSpace=wrap;rounded=0;fontFamily=Tahoma;fontColor=#424242;fontSize=9;" vertex="1" parent="1">
                    <mxGeometry x="708.59" y="770" width="40.33" height="21" as="geometry"/>
                </mxCell>
                <mxCell id="374" value="&lt;span style=&quot;&quot;&gt;(1,n)&lt;/span&gt;" style="text;html=1;strokeColor=none;fillColor=none;align=center;verticalAlign=middle;whiteSpace=wrap;rounded=0;fontFamily=Tahoma;fontColor=#424242;fontSize=9;" vertex="1" parent="1">
                    <mxGeometry x="949.59" y="909" width="40.33" height="21" as="geometry"/>
                </mxCell>
                <mxCell id="375" value="&lt;span style=&quot;&quot;&gt;(1,n)&lt;/span&gt;" style="text;html=1;strokeColor=none;fillColor=none;align=center;verticalAlign=middle;whiteSpace=wrap;rounded=0;fontFamily=Tahoma;fontColor=#424242;fontSize=9;" vertex="1" parent="1">
                    <mxGeometry x="629.67" y="1149" width="40.33" height="21" as="geometry"/>
                </mxCell>
                <mxCell id="376" value="&lt;span style=&quot;&quot;&gt;(1,n)&lt;/span&gt;" style="text;html=1;strokeColor=none;fillColor=none;align=center;verticalAlign=middle;whiteSpace=wrap;rounded=0;fontFamily=Tahoma;fontColor=#424242;fontSize=9;" vertex="1" parent="1">
                    <mxGeometry x="949.59" y="970" width="40.33" height="21" as="geometry"/>
                </mxCell>
            </root>
        </mxGraphModel>
    </diagram>
</mxfile>